<?xml version="1.0" encoding="UTF-8" standalone="no"?>
<svg
   xmlns:dc="http://purl.org/dc/elements/1.1/"
   xmlns:cc="http://creativecommons.org/ns#"
   xmlns:rdf="http://www.w3.org/1999/02/22-rdf-syntax-ns#"
   xmlns:svg="http://www.w3.org/2000/svg"
   xmlns="http://www.w3.org/2000/svg"
   xmlns:sodipodi="http://sodipodi.sourceforge.net/DTD/sodipodi-0.dtd"
   xmlns:inkscape="http://www.inkscape.org/namespaces/inkscape"
   version="1.1"
   id="svg2"
   xml:space="preserve"
   width="2133.3333"
   height="2133.3333"
   viewBox="0 0 2133.3333 2133.3333"
   sodipodi:docname="Kalyani Medical Logo Final.ai"><metadata
     id="metadata8"><rdf:RDF><cc:Work
         rdf:about=""><dc:format>image/svg+xml</dc:format><dc:type
           rdf:resource="http://purl.org/dc/dcmitype/StillImage" /></cc:Work></rdf:RDF></metadata><defs
     id="defs6"><clipPath
       clipPathUnits="userSpaceOnUse"
       id="clipPath18"><path
         d="M 0,1600 H 1600 V 0 H 0 Z"
         id="path16" /></clipPath></defs><sodipodi:namedview
     pagecolor="#ffffff"
     bordercolor="#666666"
     borderopacity="1"
     objecttolerance="10"
     gridtolerance="10"
     guidetolerance="10"
     inkscape:pageopacity="0"
     inkscape:pageshadow="2"
     inkscape:window-width="640"
     inkscape:window-height="480"
     id="namedview4" /><g
     id="g10"
     inkscape:groupmode="layer"
     inkscape:label="Kalyani Medical Logo Final"
     transform="matrix(1.3333333,0,0,-1.3333333,0,2133.3333)"><g
       id="g12"><g
         id="g14"
         clip-path="url(#clipPath18)"><g
           id="g20"
           transform="translate(805.5068,1530.8081)"><path
             d="m 0,0 c 405.601,0 733.2,-327.6 733.2,-733.2 0,-405.6 -327.599,-737.1 -733.2,-737.1"
             style="fill:#0790b0;fill-opacity:1;fill-rule:nonzero;stroke:none"
             id="path22" /></g><g
           id="g24"
           transform="translate(805.5068,60.5078)"><path
             d="M 0,0 C -405.6,0 -733.2,331.5 -733.2,737.101 -733.2,1142.7 -405.6,1470.3 0,1470.3"
             style="fill:#00a5cb;fill-opacity:1;fill-rule:nonzero;stroke:none"
             id="path26" /></g><g
           id="g28"
           transform="translate(499.6343,1210.3569)"><path
             d="m 0,0 c -13.879,-7.798 -27.403,-16.239 -40.631,-25.09 -6.686,1.981 -10.06,2.927 -16.869,4.725 13.383,9.308 27.076,18.201 41.146,26.44 C -9.746,3.73 -6.475,2.514 0,0 m -77.063,136.516 c -2.158,-7.393 -3.185,-11.09 -5.139,-18.478 -16.918,-9.966 -33.496,-20.568 -49.568,-31.851 1.428,7.553 2.192,11.336 3.822,18.908 16.517,11.157 33.534,21.614 50.885,31.421 M -21.731,8.094 c -14.134,-8.385 -27.884,-17.427 -41.319,-26.886 -6.849,1.739 -10.304,2.562 -17.272,4.111 13.577,9.93 27.485,19.438 41.798,28.281 6.782,-2.114 10.141,-3.216 16.793,-5.506 m -61.894,103.892 c -1.889,-7.385 -2.782,-11.076 -4.468,-18.452 -16.293,-10.316 -32.183,-21.07 -47.823,-32.357 1.161,7.522 1.791,11.29 3.154,18.837 15.926,11.318 32.36,21.961 49.137,31.972 m -5.93,-24.649 c -1.515,-7.306 -2.224,-10.956 -3.544,-18.244 -15.719,-10.482 -31.03,-21.384 -46.085,-32.803 0.802,7.408 1.251,11.122 2.247,18.562 15.491,11.326 31.234,22.122 47.382,32.485 m -4.781,-24.423 c -1.352,-7.346 -1.977,-11.015 -3.129,-18.338 -15.142,-10.634 -29.875,-21.671 -44.343,-33.209 0.632,7.433 0.997,11.16 1.827,18.632 14.906,11.452 30.071,22.391 45.645,32.915 m 3.774,-35.352 c -18.161,-12.921 -35.678,-26.457 -52.769,-40.758 0.372,7.376 0.607,11.076 1.174,18.496 14.325,11.56 28.916,22.623 43.916,33.287 -0.543,-3.657 -0.802,-5.484 -1.297,-9.133 3.605,-0.733 5.4,-1.112 8.976,-1.892 m -14.86,-84.94 c -0.051,-7.101 -0.029,-10.639 0.111,-17.685 -9.762,-8.622 -19.256,-17.547 -28.465,-26.757 l -9.499,9.499 c 12.275,12.062 24.849,23.673 37.853,34.943 m 0.456,23.667 c -0.305,-7.166 -0.41,-10.738 -0.523,-17.856 -14.098,-12.092 -27.694,-24.577 -40.953,-37.588 l -9.499,9.499 c 16.382,16.069 33.289,31.319 50.975,45.945 m 60.698,49 c -14.383,-9.007 -28.254,-18.747 -41.949,-28.76 -6.921,1.548 -10.411,2.276 -17.445,3.635 -0.475,-7.157 -0.666,-10.726 -0.952,-17.84 -18.972,-15.469 -37.031,-31.658 -54.493,-48.814 l -9.499,9.5 c 33.184,32.532 68.715,61.501 107.347,87.336 6.858,-1.934 10.257,-2.947 16.991,-5.057 m -22.876,6.543 c -37.583,-25.453 -72.227,-53.872 -104.628,-85.656 l -9.499,9.499 c 10.304,10.134 20.791,19.994 31.544,29.651 2.31,-2.62 3.464,-3.93 5.774,-6.55 0.152,4.794 0.248,7.196 0.484,12.011 18.933,16.038 38.392,31.078 58.696,45.34 7.112,-1.624 10.639,-2.483 17.629,-4.295 m -85.544,-43.146 c -10.823,-9.72 -21.378,-19.644 -31.75,-29.845 l -9.499,9.499 c 10.573,10.398 21.333,20.515 32.366,30.424 3.553,-4.032 5.329,-6.047 8.883,-10.078 m -11.845,13.437 c -11.103,-9.972 -21.93,-20.152 -32.571,-30.616 l -9.498,9.498 c 10.841,10.662 21.873,21.036 33.186,31.196 3.553,-4.032 5.33,-6.047 8.883,-10.078 M -176.377,5.56 c -11.383,-10.223 -22.483,-20.661 -33.392,-31.388 l -9.499,9.499 c 11.02,10.981 22.325,21.691 34.008,31.967 3.553,-4.032 5.33,-6.047 8.883,-10.078 m -11.844,13.437 c -11.754,-10.337 -23.127,-21.113 -34.213,-32.16 -3.799,3.8 -5.699,5.7 -9.499,9.499 11.286,11.246 22.864,22.215 34.829,32.739 3.553,-4.032 5.329,-6.047 8.883,-10.078 m -11.845,13.437 c -12.035,-10.585 -23.681,-21.619 -35.033,-32.932 -3.8,3.8 -5.7,5.7 -9.499,9.499 11.552,11.511 23.402,22.739 35.649,33.511 3.553,-4.032 5.33,-6.047 8.883,-10.078"
             style="fill:#ffffff;fill-opacity:1;fill-rule:nonzero;stroke:none"
             id="path30" /></g><g
           id="g32"
           transform="translate(678.9497,1277.5845)"><path
             d="m 0,0 c -13.565,-2.798 -27.037,-6.05 -40.384,-9.75 -3.705,4.55 -5.581,6.813 -9.379,11.314 13.662,3.793 27.348,7.234 41.18,10.354 C -5.102,7.173 -3.385,4.789 0,0 M -11.497,15.868 C -25.418,12.681 -39.192,9.171 -52.941,5.307 c -3.83,4.484 -5.767,6.713 -9.688,11.145 14.006,4.08 28.042,7.798 42.232,11.188 3.607,-4.687 5.388,-7.041 8.9,-11.772 m -37.017,46.39 c -14.982,-4.03 -29.789,-8.407 -44.555,-13.169 -4.195,4.269 -6.315,6.39 -10.6,10.601 14.95,5.098 30.053,9.787 45.315,13.864 3.983,-4.493 5.951,-6.752 9.84,-11.296 m -13.172,15.033 c -15.349,-4.152 -30.536,-8.92 -45.567,-14.099 -4.315,4.193 -6.496,6.274 -10.9,10.408 15.274,5.425 30.71,10.434 46.318,14.815 4.106,-4.424 6.136,-6.649 10.149,-11.124 m -41.976,43.684 c -22.929,-7.394 -45.391,-15.638 -67.66,-24.831 0.599,6.086 0.925,9.133 1.628,15.231 18.037,7.45 36.408,14.146 54.969,20.171 4.47,-4.199 6.683,-6.314 11.063,-10.571 m 14.399,-14.318 c -28.53,-8.83 -56.358,-19.045 -83.826,-30.77 0.462,6.068 0.718,9.105 1.283,15.187 23.609,9.821 47.425,18.562 71.782,26.345 4.35,-4.276 6.502,-6.429 10.761,-10.762 M -75.27,92.093 c -15.693,-4.459 -31.212,-9.548 -46.566,-15.057 -2.417,2.27 -3.632,3.401 -6.076,5.653 -0.404,-3.297 -0.598,-4.945 -0.971,-8.239 -15.39,-5.698 -30.554,-12.019 -45.517,-18.753 0.325,6.047 0.513,9.074 0.941,15.136 28.698,12.376 57.845,23.076 87.732,32.206 4.229,-4.351 6.32,-6.54 10.457,-10.946 m -54.197,-22.644 c -0.683,-6 -0.999,-8.998 -1.579,-14.987 -14.956,-5.754 -29.684,-12.117 -44.209,-18.88 0.188,6.022 0.308,9.039 0.598,15.079 14.854,6.742 29.908,13.075 45.19,18.788 m -2.049,-19.976 c -0.546,-5.984 -0.793,-8.973 -1.236,-14.945 -14.523,-5.802 -28.815,-12.196 -42.906,-18.979 0.053,5.997 0.105,9 0.26,15.016 14.416,6.769 29.035,13.141 43.882,18.908 m 95.76,-2.468 c -48.499,-12.434 -94.843,-29.461 -139.852,-51.397 -0.082,5.968 -0.099,8.958 -0.079,14.947 42.122,20.033 85.329,35.905 130.402,47.91 3.858,-4.559 5.764,-6.852 9.529,-11.46 m 12.339,-15.467 c -52.88,-12.87 -103.076,-31.319 -151.691,-55.77 -0.218,5.936 -0.301,8.911 -0.417,14.871 45.932,22.592 93.26,39.983 142.893,52.519 3.734,-4.624 5.577,-6.949 9.215,-11.62 m -111.509,-41.623 c -0.137,-5.924 -0.18,-8.881 -0.215,-14.785 -13.187,-6.048 -26.153,-12.394 -39.021,-19.094 -0.351,5.902 -0.502,8.86 -0.752,14.788 13.191,6.707 26.478,13.051 39.988,19.091 m -0.231,-19.703 c -10e-4,-5.898 0.024,-8.842 0.123,-14.719 -12.758,-6.051 -25.297,-12.389 -37.736,-19.073 -0.484,5.866 -0.701,8.807 -1.085,14.7 12.76,6.697 25.619,13.042 38.698,19.092"
             style="fill:#ffffff;fill-opacity:1;fill-rule:nonzero;stroke:none"
             id="path34" /></g><g
           id="g36"
           transform="translate(819.2383,1290.2813)"><path
             d="m 0,0 c -36.663,0.467 -72.801,-1.878 -109.094,-7.085 -10.595,-1.629 -18.702,1.401 -24.631,9.388 C -89.261,10.319 -44.871,14 0.308,13.43 0.185,8.058 0.123,5.372 0,0 m 0.41,17.907 c -46.008,0.576 -91.196,-3.225 -136.457,-11.489 -0.615,1.398 -1.064,2.833 -1.35,4.3 -0.686,3.516 -1.028,5.274 -1.714,8.791 46.351,8.535 92.704,12.452 139.829,11.828 z m -102.227,12.245 c -12.775,-1.709 -25.499,-3.793 -38.151,-6.248 -1.029,5.275 -1.543,7.912 -2.572,13.187 12.911,2.506 25.895,4.632 38.932,6.376 0.716,-5.326 1.074,-7.988 1.791,-13.315 m -2.389,17.753 c -13.123,-1.756 -26.194,-3.896 -39.191,-6.419 -1.029,5.275 -1.543,7.912 -2.572,13.187 13.257,2.573 26.588,4.756 39.972,6.546 0.717,-5.325 1.075,-7.988 1.791,-13.314 m -2.388,17.753 c -13.471,-1.803 -26.889,-4 -40.232,-6.589 -1.028,5.274 -1.543,7.911 -2.571,13.186 13.601,2.64 27.279,4.88 41.012,6.717 0.716,-5.326 1.074,-7.989 1.791,-13.314 m -2.388,17.753 c -13.822,-1.961 -27.548,-4.209 -41.273,-6.76 -1.028,5.275 -1.543,7.912 -2.571,13.186 13.984,2.6 27.969,4.891 42.052,6.888 0.716,-5.326 1.075,-7.989 1.792,-13.314 m -2.389,17.752 c -14.17,-2.01 -28.242,-4.315 -42.313,-6.93 -1.028,5.274 -1.543,7.912 -2.571,13.187 14.33,2.663 28.661,5.011 43.092,7.058 0.717,-5.327 1.076,-7.989 1.792,-13.315 m -2.389,17.753 c -14.518,-2.06 -28.936,-4.421 -43.352,-7.101 -1.029,5.275 -1.543,7.912 -2.572,13.186 14.676,2.728 29.353,5.132 44.133,7.228 0.717,-5.325 1.075,-7.988 1.791,-13.313 m -2.388,17.752 c -14.867,-2.108 -29.63,-4.526 -44.393,-7.271 -1.029,5.275 -1.543,7.912 -2.572,13.186 15.022,2.793 30.046,5.254 45.174,7.399 0.716,-5.325 1.074,-7.988 1.791,-13.314"
             style="fill:#ffffff;fill-opacity:1;fill-rule:nonzero;stroke:none"
             id="path38" /></g><g
           id="g40"
           transform="translate(970.9717,1429.3555)"><path
             d="m 0,0 c -6.405,-4.107 -9.566,-6.194 -15.805,-10.43 -18.687,3.567 -37.383,6.576 -56.247,9.055 5.894,4.688 8.884,7.005 14.951,11.579 C -37.939,7.351 -18.961,3.959 0,0 m -20.783,-14.016 c -6.185,-4.276 -9.236,-6.446 -15.251,-10.844 -18.312,3.066 -36.619,5.589 -55.08,7.589 5.66,4.834 8.535,7.225 14.371,11.949 18.765,-2.36 37.365,-5.25 55.96,-8.694 m -78.786,-128.433 c -12.093,1.292 -24.225,2.231 -36.373,2.815 l 0.649,13.418 c 12.411,-0.597 24.805,-1.555 37.16,-2.876 -0.574,-5.343 -0.861,-8.014 -1.436,-13.357 m 1.915,17.809 c -12.443,1.33 -24.924,2.296 -37.422,2.897 0.26,5.368 0.389,8.051 0.648,13.418 12.762,-0.613 25.505,-1.6 38.209,-2.958 z m 1.914,17.81 c -12.791,1.367 -25.622,2.36 -38.471,2.977 0.26,5.368 0.39,8.052 0.649,13.419 13.112,-0.63 26.206,-1.644 39.258,-3.039 -0.574,-5.343 -0.861,-8.014 -1.436,-13.357 m 1.915,17.809 c -13.14,1.405 -26.321,2.425 -39.521,3.06 0.26,5.367 0.39,8.05 0.65,13.417 13.462,-0.647 26.905,-1.687 40.306,-3.12 z m 14.897,29.837 c -5.277,-4.763 -7.874,-7.169 -12.983,-12.027 -13.488,1.441 -27.019,2.489 -40.568,3.14 -4.292,5.586 -6.483,8.363 -10.954,13.881 21.602,-0.868 43.026,-2.526 64.505,-4.994 m 18.523,15.574 c -5.729,-4.592 -8.549,-6.916 -14.104,-11.618 -24.2,2.921 -48.31,4.788 -72.672,5.626 -4.752,5.501 -7.174,8.231 -12.113,13.65 33.181,-0.589 66.017,-3.131 98.889,-7.658 m 19.288,15.084 c -5.842,-4.459 -8.721,-6.718 -14.394,-11.288 -35.905,5.165 -71.749,7.94 -108.019,8.366 -4.888,5.39 -7.377,8.065 -12.444,13.371 18.425,0.098 36.759,-0.334 55.158,-1.298 4.661,-5.667 6.946,-8.518 11.421,-14.254 5.31,4.979 8.009,7.444 13.494,12.325 18.358,-1.881 36.567,-4.282 54.784,-7.222 m -83.803,13.872 c -18.515,0.863 -36.961,1.19 -55.497,0.983 -5.246,5.273 -7.915,7.887 -13.343,13.067 18.863,0.533 37.643,0.522 56.503,-0.033 5.028,-5.566 7.496,-8.37 12.337,-14.017 m -16.355,18.638 c -18.974,0.455 -37.865,0.363 -56.835,-0.276 -5.488,5.148 -8.278,7.698 -13.947,12.746 19.291,0.982 38.51,1.404 57.824,1.272 5.276,-5.454 7.868,-8.203 12.958,-13.742"
             style="fill:#ffffff;fill-opacity:1;fill-rule:nonzero;stroke:none"
             id="path42" /></g><g
           id="g44"
           transform="translate(1070.6123,1230.9756)"><path
             d="m 0,0 c -12.743,5.884 -25.565,11.421 -38.586,16.662 -0.239,5.867 -0.385,8.804 -0.726,14.686 C -25.971,26.125 -12.829,20.6 0.235,14.72 0.191,8.821 0.145,5.877 0,0 m 0.258,19.639 c -13.172,5.877 -26.42,11.398 -39.868,16.612 -0.376,5.887 -0.59,8.834 -1.068,14.733 13.77,-5.189 27.34,-10.691 40.835,-16.557 0.091,-5.925 0.112,-8.883 0.101,-14.788 m -1.932,59.424 c -14.377,5.953 -28.998,11.328 -43.744,16.289 -0.786,5.929 -1.204,8.896 -2.094,14.834 15.069,-4.911 30.014,-10.243 44.716,-16.167 0.5,-5.989 0.725,-8.981 1.122,-14.956 m -1.552,19.949 c -14.811,5.913 -29.865,11.23 -45.042,16.122 -0.923,5.939 -1.412,8.911 -2.439,14.856 15.499,-4.835 30.879,-10.102 46.017,-15.977 0.636,-6.006 0.929,-9.007 1.464,-15.001 m -7.406,60.159 c -22.685,7.814 -45.508,14.679 -68.74,20.676 4.111,4.512 6.19,6.755 10.394,11.214 18.823,-4.855 37.46,-10.503 55.849,-16.797 1.051,-6.04 1.551,-9.059 2.497,-15.093 m 2.928,-20.096 c -28.007,10.019 -56.28,18.524 -85.166,25.621 3.986,4.579 6.004,6.856 10.085,11.385 24.674,-6.301 48.873,-13.58 72.929,-21.937 0.913,-6.032 1.343,-9.046 2.152,-15.069 m 2.468,-20.056 c -15.247,5.862 -30.735,11.111 -46.341,15.925 -0.563,3.264 -0.851,4.896 -1.444,8.161 -2.3,-2.395 -3.443,-3.597 -5.716,-6.008 -15.583,4.636 -31.357,8.651 -47.214,12.228 3.861,4.644 5.815,6.954 9.771,11.55 30.263,-7.35 59.841,-16.248 89.135,-26.817 0.775,-6.021 1.137,-9.029 1.809,-15.039 M -62.2,133.446 c -4.143,-4.391 -6.191,-6.599 -10.24,-11.043 -15.248,4.327 -30.672,8.047 -46.173,11.34 3.735,4.706 5.627,7.047 9.457,11.706 15.769,-3.505 31.456,-7.445 46.956,-12.003 m -13.603,-14.753 c -4.019,-4.461 -6.006,-6.704 -9.932,-11.216 -14.976,3.866 -29.97,7.349 -45.117,10.479 3.608,4.766 5.436,7.138 9.139,11.858 15.411,-3.222 30.748,-6.87 45.91,-11.121 M -0.577,59.178 c -46.056,19.106 -93.144,33.281 -142.09,42.797 3.48,4.822 5.245,7.223 8.821,12.004 45.513,-9.288 89.415,-22.502 132.49,-39.895 0.362,-5.97 0.518,-8.952 0.779,-14.906 M 0.067,39.367 c -49.799,21.389 -100.804,36.746 -154.121,46.439 3.353,4.878 5.053,7.306 8.501,12.144 50.072,-9.55 98.161,-24.027 145.179,-43.732 0.228,-5.949 0.315,-8.92 0.441,-14.851 M -114.13,73.082 c -3.644,-4.658 -5.444,-6.999 -8.995,-11.702 -13.917,3.038 -27.839,5.723 -41.888,8.079 3.224,4.93 4.86,7.386 8.179,12.277 14.326,-2.542 28.52,-5.418 42.704,-8.654 m -11.94,-15.628 c -3.519,-4.718 -5.254,-7.088 -8.678,-11.85 -13.511,2.898 -27.117,5.345 -40.79,7.338 3.093,4.98 4.664,7.461 7.854,12.403 13.956,-2.295 27.787,-4.918 41.614,-7.891"
             style="fill:#ffffff;fill-opacity:1;fill-rule:nonzero;stroke:none"
             id="path46" /></g><g
           id="g48"
           transform="translate(1250.0068,1200.3135)"><path
             d="m 0,0 c -11.023,9.105 -22.202,17.925 -33.624,26.523 3.19,4.324 4.786,6.486 7.977,10.81 C -14.003,28.568 -2.607,19.578 8.629,10.296 5.178,6.178 3.452,4.119 0,0 m 11.506,13.729 c -11.308,9.34 -22.776,18.388 -34.493,27.208 3.19,4.324 4.786,6.486 7.976,10.811 11.94,-8.987 23.625,-18.206 35.147,-27.723 -3.452,-4.118 -5.178,-6.178 -8.63,-10.296 m 11.506,13.728 c -11.593,9.576 -23.35,18.851 -35.364,27.894 3.192,4.325 4.788,6.487 7.978,10.811 C 7.861,56.953 19.835,47.506 31.642,37.753 28.189,33.635 26.464,31.576 23.012,27.457 M 34.518,41.186 C 22.64,50.997 10.594,60.5 -1.715,69.766 1.477,74.09 3.071,76.252 6.263,80.576 18.834,71.241 31.178,61.58 43.147,51.482 39.695,47.363 37.97,45.304 34.518,41.186 M 46.024,54.914 C 33.983,65.071 21.567,74.79 8.922,84.18 c 3.191,4.324 4.786,6.487 7.977,10.811 C 29.767,85.435 42.401,75.546 54.653,65.21 51.202,61.092 49.476,59.033 46.024,54.914 M -46.024,-54.914 c -9.802,8.234 -19.857,16.166 -30.147,23.78 -0.33,6.928 -0.542,10.404 -1.059,17.374 13.653,-9.781 27.001,-20.019 39.834,-30.857 -3.451,-4.119 -5.177,-6.178 -8.628,-10.297 m 11.505,13.729 c -14.024,11.56 -28.335,22.583 -43.098,33.187 -0.58,6.983 -0.918,10.483 -1.689,17.5 18.411,-12.744 36.133,-26.15 53.417,-40.391 -3.452,-4.118 -5.177,-6.177 -8.63,-10.296 m 11.506,13.728 c -18.363,15.155 -37.222,29.338 -56.887,42.761 -0.833,7.027 -1.298,10.549 -2.323,17.605 23.573,-15.496 46.079,-32.118 67.84,-50.069 -3.452,-4.119 -5.178,-6.178 -8.63,-10.297 m 11.506,13.728 c -22.908,18.883 -46.625,36.295 -71.519,52.472 -1.088,7.064 -1.68,10.602 -2.961,17.689 15.869,-9.913 31.321,-20.27 46.523,-31.174 0.219,-2.379 0.322,-3.568 0.522,-5.943 1.063,1.442 1.594,2.163 2.658,3.604 11.348,-8.543 22.456,-17.305 33.407,-26.351 -3.452,-4.119 -5.178,-6.178 -8.63,-10.297 m -28.761,45.106 c -15.353,10.871 -30.955,21.189 -46.973,31.06 -1.251,7.035 -1.924,10.557 -3.364,17.61 16.456,-9.757 32.499,-19.976 48.298,-30.759 0.91,-7.18 1.318,-10.763 2.039,-17.911 m -99.333,-21.335 c -10.848,6.131 -21.881,11.934 -33.082,17.396 2.357,4.831 3.535,7.247 5.891,12.078 11.441,-5.581 22.714,-11.509 33.796,-17.773 -2.642,-4.681 -3.963,-7.021 -6.605,-11.701 m 8.807,15.602 c -11.16,6.308 -22.513,12.278 -34.035,17.898 2.356,4.831 3.534,7.247 5.89,12.077 11.765,-5.738 23.355,-11.833 34.751,-18.274 -2.642,-4.681 -3.963,-7.021 -6.606,-11.701 m 8.808,15.601 c -11.474,6.485 -23.144,12.622 -34.99,18.4 2.356,4.831 3.535,7.247 5.89,12.078 12.088,-5.896 23.997,-12.159 35.705,-18.776 -2.642,-4.681 -3.964,-7.021 -6.605,-11.702 m 8.807,15.602 c -11.787,6.662 -23.775,12.966 -35.943,18.902 2.355,4.831 3.533,7.246 5.89,12.077 12.411,-6.053 24.637,-12.483 36.659,-19.278 -2.643,-4.68 -3.964,-7.021 -6.606,-11.701 m 8.807,15.602 c -12.162,6.744 -24.395,13.305 -36.898,19.404 2.357,4.83 3.535,7.246 5.891,12.077 12.699,-6.323 25.206,-12.9 37.612,-19.78 -2.641,-4.68 -3.962,-7.021 -6.605,-11.701 m 61.044,-17.011 c -15.953,10.746 -32.147,20.922 -48.753,30.631 -0.502,2.352 -0.759,3.529 -1.281,5.882 -0.881,-1.56 -1.322,-2.34 -2.202,-3.9 -12.486,6.923 -25.072,13.542 -37.852,19.905 2.356,4.831 3.534,7.247 5.89,12.077 28.027,-13.955 55.021,-29.38 81.28,-46.428 1.265,-7.278 1.848,-10.912 2.918,-18.167 m -3.916,24.182 c -25.37,16.244 -51.36,30.996 -78.319,44.439 2.356,4.831 3.535,7.247 5.89,12.078 23.59,-11.756 46.425,-24.452 68.863,-38.279 1.525,-7.304 2.238,-10.952 3.566,-18.238 m -4.777,24.275 c -21.432,13.05 -43.225,25.086 -65.688,36.268 2.355,4.831 3.533,7.246 5.89,12.077 18.897,-9.398 37.367,-19.387 55.58,-30.055 1.785,-7.322 2.629,-10.981 4.218,-18.29 m -5.644,24.341 c -17.015,10.014 -34.426,19.414 -52.191,28.031 2.356,4.831 3.534,7.246 5.89,12.077 14.011,-6.864 27.861,-14.081 41.429,-21.786 2.048,-7.332 3.022,-10.997 4.872,-18.322"
             style="fill:#ffffff;fill-opacity:1;fill-rule:nonzero;stroke:none"
             id="path50" /></g><g
           id="g52"
           transform="translate(1244.1797,1108.5366)"><path
             d="m 0,0 c -9.21,9.21 -18.704,18.136 -28.467,26.758 3.554,4.031 5.33,6.047 8.884,10.077 C -9.609,28.027 0.09,18.908 9.499,9.499 5.699,5.7 3.799,3.8 0,0 m 12.665,12.666 c -9.476,9.475 -19.243,18.658 -29.287,27.529 3.554,4.031 5.33,6.047 8.884,10.078 C 2.517,41.215 12.489,31.839 22.164,22.165 Z M 25.33,25.331 c -9.74,9.741 -19.782,19.182 -30.107,28.301 3.552,4.031 5.33,6.047 8.882,10.078 10.474,-9.406 20.688,-19.009 30.725,-28.88 -3.8,-3.8 -5.7,-5.7 -9.5,-9.499 M 37.996,37.996 C 27.893,47.933 17.61,57.6 7.067,67.069 10.62,71.1 12.396,73.116 15.95,77.146 26.703,67.489 37.19,57.629 47.495,47.495 c -3.8,-3.8 -5.7,-5.7 -9.499,-9.499 m 12.665,12.666 c -10.372,10.2 -20.927,20.124 -31.75,29.844 3.554,4.031 5.33,6.047 8.884,10.078 11.033,-9.909 21.792,-20.025 32.365,-30.423 -3.8,-3.8 -5.699,-5.7 -9.499,-9.499 m 12.665,12.665 c -10.639,10.464 -21.467,20.645 -32.57,30.616 3.554,4.031 5.33,6.047 8.883,10.078 11.313,-10.16 22.345,-20.533 33.186,-31.195 -3.799,-3.8 -5.699,-5.7 -9.499,-9.499 M 75.992,75.992 C 65.084,86.72 53.982,97.157 42.6,107.38 c 3.553,4.031 5.33,6.047 8.883,10.078 11.643,-10.319 23.029,-20.942 34.008,-31.967 -3.8,-3.8 -5.7,-5.699 -9.499,-9.499 m 12.665,12.665 c -11.045,11.091 -22.5,21.779 -34.213,32.16 3.554,4.031 5.33,6.047 8.884,10.078 11.923,-10.568 23.584,-21.448 34.828,-32.739 -3.8,-3.799 -5.699,-5.699 -9.499,-9.499 m 12.665,12.666 c -11.309,11.357 -23.04,22.301 -35.033,32.931 3.553,4.032 5.33,6.047 8.883,10.078 12.204,-10.817 24.141,-21.954 35.649,-33.51 z"
             style="fill:#ffffff;fill-opacity:1;fill-rule:nonzero;stroke:none"
             id="path54" /></g><g
           id="g56"
           transform="translate(446.0503,226.0947)"><path
             d="m 0,0 c -13.899,6.847 -27.613,13.951 -41.225,21.352 2.271,5.104 3.407,7.657 5.678,12.761 C -22.13,26.816 -8.614,19.812 5.085,13.06 3.051,7.835 2.034,5.224 0,0 m 6.78,17.412 c -13.633,6.72 -27.083,13.692 -40.434,20.955 2.271,5.105 3.406,7.657 5.677,12.762 C -14.821,43.97 -1.567,37.097 11.865,30.472 9.832,25.247 8.814,22.636 6.78,17.412 m 6.781,17.412 c -13.367,6.594 -26.555,13.434 -39.645,20.559 2.272,5.104 3.407,7.657 5.678,12.762 C -7.511,61.122 5.479,54.382 18.646,47.884 16.612,42.66 15.595,40.048 13.561,34.824 m 6.78,17.412 c -13.1,6.467 -26.025,13.175 -38.854,20.162 2.271,5.105 3.407,7.658 5.678,12.762 C -0.202,78.275 12.526,71.667 25.426,65.296 23.392,60.072 22.375,57.46 20.341,52.236 m 33.901,87.063 c -14.105,6.821 -27.946,14.198 -41.569,21.933 4.978,3.563 7.448,5.364 12.346,9.006 11.27,-6.272 22.711,-12.236 34.309,-17.88 -2.035,-5.224 -3.052,-7.836 -5.086,-13.059 m -6.78,-17.412 c -17.564,8.534 -34.83,17.75 -51.635,27.698 5.084,3.453 7.606,5.199 12.611,8.734 14.44,-8.265 29.127,-16.132 44.109,-23.373 -2.034,-5.224 -3.051,-7.836 -5.085,-13.059 m -6.78,-17.412 c -21.175,10.478 -41.773,21.717 -62.053,33.837 5.187,3.34 7.762,5.031 12.872,8.455 17.784,-10.374 35.815,-20.093 54.266,-29.234 -2.034,-5.223 -3.051,-7.835 -5.085,-13.058 M 33.901,87.062 c -24.944,12.338 -49.13,25.755 -72.818,40.361 5.291,3.223 7.917,4.857 13.132,8.168 21.152,-12.736 42.646,-24.514 64.772,-35.47 -2.034,-5.224 -3.051,-7.836 -5.086,-13.059 m -6.78,-17.413 c -12.833,6.339 -25.496,12.915 -38.063,19.765 1.135,2.553 1.703,3.829 2.839,6.381 -2.632,-1.723 -3.953,-2.578 -6.605,-4.279 -14.306,8 -28.318,16.534 -42.095,25.412 5.49,3.041 8.216,4.585 13.628,7.719 C -18.673,109.438 6.359,95.499 32.206,82.708 30.172,77.484 29.155,74.873 27.121,69.649 m -46.008,18.902 c -5.228,-3.432 -7.863,-5.126 -13.169,-8.473 -14.528,8.386 -28.748,17.316 -42.722,26.592 5.491,2.985 8.218,4.5 13.635,7.576 13.828,-8.974 27.893,-17.602 42.256,-25.695 m -54.099,-32.43 c -5.538,-3.081 -8.326,-4.599 -13.938,-7.589 -10.664,6.8 -21.178,13.834 -31.532,21.096 -0.301,6.95 -0.426,10.42 -0.625,17.347 15.122,-10.687 30.451,-20.951 46.095,-30.854 m 18.377,10.417 c -5.436,-3.201 -8.174,-4.779 -13.686,-7.891 -17.365,10.895 -34.331,22.258 -51.021,34.158 -0.164,6.919 -0.222,10.372 -0.284,17.266 21.137,-15.39 42.71,-29.851 64.991,-43.533 m 18.034,10.813 c -5.333,-3.318 -8.019,-4.955 -13.429,-8.185 -23.952,14.577 -47.117,30.11 -69.716,46.707 -0.028,6.885 -0.016,10.32 0.057,17.178 26.752,-20.071 54.351,-38.595 83.088,-55.7 m -41.67,31.642 c -14.139,9.486 -27.855,19.552 -41.424,29.83 0.108,6.848 0.187,10.265 0.396,17.083 13.227,-10.352 26.725,-20.38 40.573,-29.889 0.132,-6.797 0.222,-10.203 0.455,-17.024 m -83.747,-6.769 c -12.703,10.101 -25.079,20.621 -37.209,31.402 l 7.956,11.186 c 11.955,-10.629 24.152,-21 36.672,-30.96 -2.968,-4.652 -4.451,-6.977 -7.419,-11.628 m 9.892,15.504 c -12.459,9.913 -24.596,20.234 -36.492,30.813 l 7.956,11.187 c 11.721,-10.428 23.679,-20.601 35.955,-30.372 -2.968,-4.651 -4.451,-6.977 -7.419,-11.628 m 9.892,15.504 c -12.214,9.723 -24.113,19.847 -35.775,30.224 3.182,4.475 4.774,6.712 7.956,11.186 11.56,-10.17 23.281,-20.08 35.237,-29.782 -2.967,-4.651 -4.451,-6.976 -7.418,-11.628 m 9.892,15.504 c -11.896,9.654 -23.558,19.514 -35.059,29.635 3.183,4.475 4.774,6.711 7.957,11.186 11.325,-9.969 22.807,-19.683 34.521,-29.193 -2.968,-4.651 -4.452,-6.976 -7.419,-11.628 m 53.682,-17.17 c -13.756,9.515 -27.162,19.543 -40.297,29.896 0.073,3.44 0.117,5.159 0.216,8.593 -1.484,-2.326 -2.226,-3.489 -3.71,-5.815 -11.652,9.462 -23.075,19.126 -34.341,29.046 3.183,4.475 4.774,6.711 7.957,11.186 22.43,-19.738 45.61,-38.285 69.819,-55.795 0.09,-6.832 0.161,-10.254 0.356,-17.111 m -0.183,22.632 c -23.324,16.983 -45.686,34.936 -67.34,54.002 3.183,4.475 4.775,6.713 7.958,11.188 19.253,-16.955 39.028,-33.008 59.601,-48.336 -0.138,-6.728 -0.182,-10.099 -0.219,-16.854 m 0.271,22.513 c -19.651,14.746 -38.569,30.161 -57.001,46.405 3.183,4.475 4.774,6.711 7.957,11.186 16.097,-14.188 32.576,-27.764 49.598,-40.833 -0.272,-6.689 -0.383,-10.04 -0.554,-16.758 m 0.72,22.383 c -16.148,12.486 -31.806,25.434 -47.112,38.937 3.183,4.474 4.774,6.711 7.957,11.186 13.065,-11.528 26.378,-22.658 40.043,-33.467 -0.405,-6.646 -0.583,-9.978 -0.888,-16.656 m 1.168,22.246 c -12.917,10.092 -25.443,20.692 -37.671,31.605 l 7.956,11.187 c 10.071,-9.028 20.387,-17.782 30.935,-26.246 -0.538,-6.602 -0.781,-9.911 -1.22,-16.546"
             style="fill:#ffffff;fill-opacity:1;fill-rule:nonzero;stroke:none"
             id="path58" /></g><g
           id="g60"
           transform="translate(620.4146,164.583)"><path
             d="m 0,0 c -44.312,10.61 -87.32,24.389 -129.569,41.449 -10.645,4.124 -19.427,12.732 -21.043,24.377 C -100.997,43.824 -50.197,26.572 2.584,13.906 1.551,8.344 1.034,5.562 0,0 m 27.566,148.335 c -45.364,11.048 -88.986,25.963 -131.651,44.923 7.153,7.024 17.436,7.826 26.336,3.799 35.219,-14.264 70.981,-25.819 107.9,-34.816 -1.034,-5.562 -1.551,-8.344 -2.585,-13.906 M 3.446,18.541 c -53.119,12.756 -104.213,30.176 -154.099,52.428 0.169,1.629 0.529,3.175 1.068,4.639 1.292,3.511 1.938,5.267 3.23,8.779 C -97.032,62.333 -46.508,45.076 6.03,32.448 4.997,26.885 4.479,24.104 3.446,18.541 m -107.557,52.99 c -13.673,5.482 -27.188,11.219 -40.629,17.245 1.938,5.268 2.907,7.901 4.845,13.168 13.241,-5.939 26.554,-11.593 40.022,-16.997 -1.695,-5.366 -2.543,-8.05 -4.238,-13.416 m 5.651,17.889 c -13.4,5.376 -26.646,11.004 -39.82,16.914 1.938,5.268 2.907,7.901 4.845,13.168 12.973,-5.823 26.018,-11.368 39.214,-16.666 -1.696,-5.366 -2.544,-8.05 -4.239,-13.416 M 13.783,74.167 c -50.203,12.099 -98.477,28.62 -145.602,49.725 1.938,5.267 2.906,7.901 4.845,13.168 46.392,-20.789 93.917,-37.065 143.341,-48.987 -1.034,-5.562 -1.55,-8.344 -2.584,-13.906 m 3.446,18.541 c -49.148,11.892 -96.432,28.089 -142.588,48.741 1.938,5.268 2.907,7.902 4.845,13.17 45.424,-20.337 91.957,-36.289 140.327,-48.003 -1.033,-5.563 -1.55,-8.345 -2.584,-13.908 m -98.734,50.379 c -12.608,4.963 -25.078,10.273 -37.394,15.921 1.939,5.267 2.907,7.901 4.845,13.169 12.116,-5.561 24.384,-10.788 36.787,-15.674 -1.695,-5.366 -2.543,-8.05 -4.238,-13.416 M 24.121,129.793 c -47.073,11.42 -92.357,26.962 -136.559,46.772 l 3.23,8.78 c 0.537,1.461 1.233,2.853 2.09,4.172 43.321,-19.393 87.7,-34.619 133.823,-45.818 -1.034,-5.562 -1.551,-8.344 -2.584,-13.906"
             style="fill:#ffffff;fill-opacity:1;fill-rule:nonzero;stroke:none"
             id="path62" /></g><g
           id="g64"
           transform="translate(815.1074,181.3711)"><path
             d="m 0,0 c -14.311,-0.075 -28.576,0.135 -42.879,0.63 0.173,5.668 0.259,8.502 0.431,14.17 14.091,-0.49 28.144,-0.699 42.243,-0.628 C -0.123,8.503 -0.082,5.669 0,0 m -0.273,18.896 c -14.029,-0.071 -28.011,0.138 -42.031,0.627 0.172,5.668 0.258,8.502 0.43,14.17 13.79,-0.584 27.595,-0.793 41.395,-0.626 0.083,-5.669 0.124,-8.503 0.206,-14.171 m -0.274,18.895 c -13.73,-0.165 -27.464,0.043 -41.183,0.626 0.172,5.669 0.259,8.502 0.431,14.171 13.507,-0.577 27.029,-0.785 40.547,-0.625 0.082,-5.669 0.123,-8.503 0.205,-14.172 M -0.82,56.687 c -13.448,-0.159 -26.899,0.049 -40.335,0.624 0.172,5.668 0.258,8.502 0.43,14.171 13.225,-0.568 26.464,-0.776 39.7,-0.623 0.082,-5.669 0.123,-8.504 0.205,-14.172 m -0.274,18.896 c -13.165,-0.151 -26.333,0.057 -39.487,0.623 0.172,5.668 0.259,8.502 0.431,14.17 12.942,-0.56 25.898,-0.768 38.851,-0.622 0.082,-5.668 0.123,-8.502 0.205,-14.171 M -2.001,-23.646 C -7.188,-33.76 -18.22,-38.182 -29.17,-37.639 c -49.889,1.565 -99,7.213 -147.947,16.991 0.933,5.583 1.399,8.375 2.332,13.958 57.182,-11.418 114.472,-17.052 172.784,-16.956 m 2.206,9.475 c 0.023,-1.576 -0.149,-3.154 -0.514,-4.731 -58.622,-0.217 -116.21,5.386 -173.698,16.864 0.933,5.584 1.4,8.375 2.333,13.959 C -114.833,0.562 -57.896,-4.968 0.068,-4.724 0.123,-8.502 0.15,-10.393 0.205,-14.171 M -128.419,8.912 c -14.225,2.274 -28.355,4.822 -42.478,7.661 0.933,5.584 1.4,8.375 2.333,13.958 13.912,-2.8 27.833,-5.313 41.846,-7.554 -0.68,-5.626 -1.021,-8.439 -1.701,-14.065 m 2.268,18.752 c -13.942,2.232 -27.793,4.733 -41.636,7.521 0.933,5.583 1.4,8.375 2.333,13.958 13.625,-2.747 27.262,-5.316 41.004,-7.414 -0.68,-5.626 -1.021,-8.439 -1.701,-14.065 m 2.268,18.752 c -13.661,2.088 -27.266,4.549 -40.793,7.38 0.933,5.583 1.4,8.374 2.333,13.958 13.318,-2.79 26.711,-5.216 40.161,-7.275 -0.68,-5.625 -1.02,-8.437 -1.701,-14.063 m 2.268,18.752 c -13.38,2.048 -26.703,4.462 -39.95,7.238 0.933,5.584 1.399,8.376 2.332,13.96 13.039,-2.735 26.151,-5.115 39.319,-7.134 -0.68,-5.626 -1.02,-8.438 -1.701,-14.064 m 2.268,18.753 c -13.097,2.009 -26.14,4.376 -39.108,7.098 0.933,5.583 1.399,8.375 2.332,13.958 12.76,-2.681 25.591,-5.013 38.477,-6.993 -0.68,-5.626 -1.02,-8.438 -1.701,-14.063 m 117.98,10.558 c -51.989,-0.113 -103.011,4.918 -153.978,15.151 0.933,5.583 1.4,8.375 2.333,13.958 49.957,-10.043 99.972,-15.006 150.934,-14.943 0.357,-1.573 0.552,-3.147 0.574,-4.719 0.055,-3.78 0.082,-5.669 0.137,-9.447 m -2.289,18.875 c -50.154,0.082 -99.402,5.025 -148.578,14.886 0.933,5.584 1.399,8.375 2.333,13.959 40.826,-8.201 81.667,-13.001 123.284,-14.467 9.928,-0.003 18.825,-5.238 22.961,-14.378"
             style="fill:#ffffff;fill-opacity:1;fill-rule:nonzero;stroke:none"
             id="path66" /></g><g
           id="g68"
           transform="translate(877.9492,146.7754)"><path
             d="m 0,0 c -14.822,-1.219 -29.618,-2.14 -44.477,-2.768 -0.183,5.665 -0.275,8.498 -0.459,14.164 14.647,0.615 29.232,1.52 43.842,2.719 C -0.656,8.469 -0.437,5.646 0,0 m -1.458,18.82 c -14.54,-1.192 -29.055,-2.092 -43.631,-2.704 -0.183,5.665 -0.275,8.497 -0.459,14.162 14.364,0.601 28.669,1.485 42.997,2.658 0.438,-5.647 0.656,-8.47 1.093,-14.116 m -1.457,18.82 c -14.258,-1.165 -28.492,-2.044 -42.786,-2.641 -0.184,5.665 -0.276,8.497 -0.459,14.162 14.082,0.585 28.105,1.448 42.152,2.594 0.438,-5.646 0.656,-8.469 1.093,-14.115 m -1.457,18.82 c -13.977,-1.139 -27.93,-1.997 -41.941,-2.578 -0.183,5.665 -0.275,8.497 -0.458,14.162 13.788,0.469 27.564,1.312 41.306,2.531 0.438,-5.646 0.656,-8.469 1.093,-14.115 m -1.457,18.82 c -13.672,-1.212 -27.378,-2.051 -41.096,-2.514 -0.183,5.664 -0.275,8.497 -0.459,14.162 13.506,0.454 27,1.277 40.462,2.467 0.438,-5.646 0.656,-8.469 1.093,-14.115 M -7.286,94.1 c -13.392,-1.183 -26.816,-2 -40.251,-2.452 -0.184,5.665 -0.276,8.498 -0.459,14.164 13.225,0.441 26.436,1.243 39.617,2.404 0.438,-5.647 0.656,-8.47 1.093,-14.116 m -1.457,18.821 c -13.111,-1.154 -26.252,-1.95 -39.406,-2.389 -0.184,5.665 -0.276,8.497 -0.459,14.162 12.942,0.429 25.872,1.209 38.772,2.342 0.438,-5.646 0.655,-8.469 1.093,-14.115 m -1.457,18.82 c -12.83,-1.126 -25.69,-1.901 -38.562,-2.326 -0.183,5.665 -0.275,8.497 -0.459,14.162 12.66,0.415 25.309,1.175 37.928,2.278 0.437,-5.645 0.655,-8.468 1.093,-14.114 m -1.457,18.82 c -12.549,-1.097 -25.127,-1.852 -37.717,-2.263 -0.184,5.665 -0.275,8.497 -0.459,14.162 12.378,0.401 24.745,1.141 37.083,2.216 0.437,-5.647 0.655,-8.469 1.093,-14.115"
             style="fill:#ffffff;fill-opacity:1;fill-rule:nonzero;stroke:none"
             id="path70" /></g><g
           id="g72"
           transform="translate(1055.9307,182.9561)"><path
             d="m 0,0 c -42.915,-13.444 -86.319,-23.597 -130.748,-30.558 -10.737,-1.895 -22.226,1.079 -28.509,10.512 53.025,6.506 104.644,17.666 155.634,33.613 C -2.174,8.141 -1.449,5.427 0,0 m -38.646,144.725 c -43.921,-13.575 -88.311,-23.078 -133.942,-28.642 3.11,9.563 11.362,15.809 21.245,17.002 37.071,5.771 73.227,14.134 109.073,25.207 1.45,-5.427 2.174,-8.141 3.624,-13.567 M -4.831,18.09 C -56.143,2.051 -108.085,-9.117 -161.455,-15.549 c -0.539,1.519 -0.878,3.065 -1.027,4.631 -0.359,3.757 -0.539,5.635 -0.898,9.391 52.793,6.315 104.171,17.332 154.926,33.185 1.449,-5.428 2.174,-8.14 3.623,-13.568 M -121.313,9.072 c -14.146,-2.253 -28.29,-4.217 -42.515,-5.903 -0.538,5.635 -0.807,8.451 -1.345,14.086 14.014,1.659 27.948,3.592 41.886,5.808 0.79,-5.596 1.184,-8.394 1.974,-13.991 m -2.632,18.655 c -13.867,-2.205 -27.733,-4.126 -41.677,-5.777 -0.538,5.635 -0.807,8.452 -1.345,14.087 13.731,1.52 27.42,3.414 41.048,5.681 0.789,-5.597 1.185,-8.395 1.974,-13.991 m -2.632,18.655 c -13.559,-2.254 -27.178,-4.139 -40.839,-5.65 -0.538,5.635 -0.807,8.453 -1.345,14.087 13.45,1.485 26.86,3.337 40.209,5.553 0.79,-5.596 1.185,-8.394 1.975,-13.99 m -2.633,18.654 c -13.28,-2.204 -26.619,-4.045 -40,-5.521 -0.538,5.634 -0.807,8.452 -1.346,14.087 13.17,1.45 26.3,3.259 39.371,5.425 0.79,-5.596 1.185,-8.394 1.975,-13.991 m -2.633,18.655 c -13.001,-2.153 -26.061,-3.953 -39.161,-5.394 -0.538,5.635 -0.808,8.452 -1.346,14.087 12.89,1.415 25.74,3.182 38.533,5.298 0.79,-5.596 1.184,-8.394 1.974,-13.991 m 98.028,42.943 c -45.539,-14.119 -91.636,-23.933 -138.983,-29.555 -0.358,3.756 -0.538,5.635 -0.896,9.391 -0.15,1.562 -0.133,3.147 0.054,4.751 46.409,5.565 91.542,15.179 136.202,28.981 1.449,-5.428 2.173,-8.14 3.623,-13.568"
             style="fill:#ffffff;fill-opacity:1;fill-rule:nonzero;stroke:none"
             id="path74" /></g><g
           id="g76"
           transform="translate(1268.9727,287.1953)"><path
             d="m 0,0 c -14.604,-9.783 -29.389,-19.179 -44.452,-28.24 -4.95,3.473 -7.41,5.228 -12.298,8.769 14.906,8.786 29.543,17.904 44.003,27.404 C -7.678,4.724 -5.129,3.137 0,0 M -16.963,10.617 C -31.375,1.211 -45.961,-7.814 -60.814,-16.51 c -4.868,3.565 -7.285,5.364 -12.088,8.994 14.714,8.339 29.226,17.062 43.391,26.306 4.99,-3.305 7.499,-4.939 12.548,-8.173 m -49.28,33.743 c -13.717,-8.431 -27.748,-16.358 -41.964,-23.915 -4.61,3.825 -6.899,5.752 -11.445,9.638 14.045,7.305 27.913,14.974 41.474,23.144 4.742,-3.581 7.13,-5.354 11.935,-8.867 m -15.878,11.859 c -13.51,-8.083 -27.322,-15.668 -41.31,-22.889 -4.522,3.907 -6.767,5.877 -11.224,9.845 13.789,7.076 27.356,14.435 40.808,22.132 4.659,-3.668 7.004,-5.487 11.726,-9.088 m -45.943,37.318 c -18.115,-9.728 -36.457,-18.762 -55.214,-27.179 0.354,6.24 0.511,9.356 0.784,15.581 14.674,6.628 29.172,13.684 43.348,21.323 4.4,-3.921 6.617,-5.866 11.082,-9.725 m 15.029,-12.724 c -23.389,-12.902 -47.124,-24.604 -71.608,-35.282 0.464,6.256 0.675,9.382 1.057,15.625 20.156,8.99 39.832,18.682 59.252,29.174 4.487,-3.838 6.747,-5.742 11.299,-9.517 M -97.72,68.372 c -13.398,-7.612 -26.909,-14.889 -40.639,-21.883 -2.42,2.203 -3.625,3.31 -6.025,5.531 -0.098,-3.453 -0.154,-5.18 -0.277,-8.636 -13.78,-6.57 -27.649,-12.799 -41.713,-18.735 0.574,6.272 0.841,9.406 1.333,15.666 25.943,11.207 51.112,23.621 75.809,37.362 4.572,-3.754 6.875,-5.615 11.512,-9.305 M -144.889,38.13 c -0.285,-6.308 -0.449,-9.466 -0.816,-15.788 -14.133,-6.54 -28.351,-12.733 -42.765,-18.623 0.684,6.285 1.005,9.427 1.607,15.702 14.152,5.925 28.107,12.146 41.974,18.709 m -1.134,-21.059 c -0.396,-6.327 -0.615,-9.494 -1.092,-15.835 -14.395,-6.643 -29.039,-12.757 -43.819,-18.489 0.794,6.297 1.17,9.443 1.882,15.732 14.518,5.774 28.898,11.922 43.029,18.592 m 95.935,15.733 c -45.799,-28.246 -93.42,-51.848 -143.678,-71.064 0.905,6.307 1.336,9.458 2.159,15.758 45.048,17.66 87.972,38.912 129.377,63.944 4.827,-3.489 7.254,-5.217 12.142,-8.638 m 16.428,-11.25 c -51.691,-32.756 -105.896,-59.659 -163.309,-80.851 1.017,6.316 1.504,9.471 2.437,15.78 52.032,19.705 101.268,44.117 148.525,73.479 4.908,-3.399 7.378,-5.08 12.347,-8.408 m -117.967,-68.005 c -0.726,-6.375 -1.109,-9.565 -1.918,-15.948 -15.459,-6.501 -31.162,-12.433 -46.995,-17.957 1.127,6.321 1.67,9.48 2.714,15.796 15.569,5.582 31.007,11.566 46.199,18.109 m -2.603,-21.27 c -0.836,-6.386 -1.275,-9.582 -2.195,-15.976 -15.891,-6.307 -31.878,-12.207 -48.058,-17.735 1.238,6.325 1.837,9.487 2.992,15.808 15.921,5.503 31.713,11.417 47.261,17.903"
             style="fill:#ffffff;fill-opacity:1;fill-rule:nonzero;stroke:none"
             id="path78" /></g><g
           id="g80"
           transform="translate(1409.5654,406.5928)"><path
             d="m 0,0 c -33.522,-34.634 -69.196,-66.48 -107.51,-95.731 -8.41,-6.739 -20.071,-10.524 -30.104,-4.987 46.525,33.112 89.262,70.031 128.998,111.038 C -5.17,6.192 -3.446,4.129 0,0 m -11.488,13.761 c -39.983,-41.251 -83.011,-78.338 -129.891,-111.549 -1.086,1.093 -2.001,2.309 -2.751,3.641 -1.799,3.191 -2.699,4.787 -4.498,7.978 46.397,32.805 88.97,69.46 128.524,110.25 3.446,-4.128 5.169,-6.192 8.616,-10.32 m -102.939,-69.078 c -11.982,-9.207 -24.107,-18.145 -36.45,-26.863 -2.698,4.787 -4.048,7.181 -6.746,11.969 12.161,8.587 24.108,17.39 35.916,26.458 2.912,-4.626 4.368,-6.938 7.28,-11.564 m -9.707,15.419 c -11.749,-9.023 -23.637,-17.781 -35.738,-26.324 -2.699,4.787 -4.048,7.181 -6.747,11.969 11.921,8.411 23.632,17.034 35.204,25.918 2.913,-4.625 4.369,-6.937 7.281,-11.563 m -9.708,15.418 c -11.514,-8.837 -23.166,-17.416 -35.026,-25.784 -2.698,4.787 -4.048,7.181 -6.746,11.968 11.679,8.236 23.153,16.681 34.492,25.38 2.912,-4.626 4.368,-6.938 7.28,-11.564 m -9.707,15.418 c -11.281,-8.653 -22.695,-17.051 -34.314,-25.244 -2.699,4.787 -4.049,7.182 -6.747,11.969 11.437,8.062 22.674,16.326 33.78,24.84 2.912,-4.626 4.369,-6.939 7.281,-11.565 m -9.708,15.419 c -11.041,-8.463 -22.17,-16.774 -33.602,-24.705 -2.7,4.788 -4.048,7.182 -6.747,11.969 11.243,7.795 22.27,15.9 33.069,24.3 2.912,-4.625 4.368,-6.938 7.28,-11.564 m -9.707,15.419 c -10.74,-8.354 -21.709,-16.414 -32.891,-24.166 -2.699,4.787 -4.048,7.181 -6.748,11.969 11.001,7.621 21.792,15.547 32.358,23.761 2.912,-4.626 4.368,-6.939 7.281,-11.564 m -9.708,15.418 c -10.508,-8.168 -21.239,-16.048 -32.18,-23.626 -2.698,4.787 -4.047,7.181 -6.746,11.968 10.759,7.448 21.312,15.193 31.646,23.222 2.912,-4.626 4.368,-6.939 7.28,-11.564"
             style="fill:#ffffff;fill-opacity:1;fill-rule:nonzero;stroke:none"
             id="path82" /></g><g
           id="g84"
           transform="translate(657.3711,840.9175)"><path
             d="m 0,0 c -2.567,15.578 -22.687,13.313 -35.305,12.082 -17.496,-1.709 -35.212,-2.781 -52.767,-4.327 -15.095,-1.33 -31.256,-3.92 -46.334,-3.448 -14.357,0.449 -29.371,5.342 -43.919,6.032 -17.322,0.819 -34.83,-0.808 -51.718,-1.723 -36.06,-1.958 -70.068,-2.991 -105.106,-12.923 -28.467,-8.072 -57.986,-9.06 -85.275,-20.049 -15.437,-6.221 -33.217,-8.954 -49.129,-12.04 -6.599,-1.277 -12.522,-4.509 -18.952,-5.774 -7.141,-1.406 -12.742,-1.582 -18.953,-5.216 -13.21,-7.728 -17.017,-12.489 -14.646,-28.428 -10.628,-1.723 -24.188,-16.133 -23.417,-21.54 1.341,-9.388 8.978,-20.895 19.822,-28.837 8.853,-6.487 23.667,-15.387 36.958,-21.372 31.331,-14.104 64.052,-31.314 98.215,-36.783 46.87,-7.502 93.227,-24.783 140.672,-26.728 18.45,-0.757 36.637,2.596 54.919,3.446 14.262,0.662 28.299,-1.602 42.451,-0.188 16.832,1.684 33.911,6.046 49.303,13.282 16.739,7.867 28.175,20.331 42.002,31.728 7.564,6.237 16.851,9.57 24.124,16.306 5.979,5.534 8.414,11.751 12.687,18.329 5.121,7.878 13.336,12.49 17.483,21.306 7.503,15.943 9.195,39.493 7.758,56.895 -1.524,18.465 -1.976,36.345 -0.881,54.285"
             style="fill:#f0d2be;fill-opacity:1;fill-rule:nonzero;stroke:none"
             id="path86" /></g><g
           id="g88"
           transform="translate(1431.7852,863.3071)"><path
             d="m 0,0 c 4.035,-6.714 10.446,-13.801 11.644,-21.54 1.459,-9.39 -4.843,-26.814 -0.014,-32.42 4.206,-4.882 20.229,-9.334 25.743,-14.102 6.19,-5.351 9.576,-12.316 14.688,-18.955 11.433,-14.854 14.826,-24.744 15.821,-43.939 1.796,-34.499 0.23,-72.25 -17.513,-101.034 -19.525,-31.677 -53.049,-45.276 -86.992,-56.629 -67.229,-22.482 -146.724,-10.698 -191.004,47.16 -10.351,13.52 -17.654,19.275 -33.142,27.336 15.488,-8.061 19.579,-24.293 15.934,-43.195 -3.143,-16.293 -19.191,-26.687 -31.04,-36.477 -26.206,-21.644 -53.009,-42.951 -83.577,-57.496 -30.886,-14.693 -78.231,-10.807 -111.425,-7.143 -18.712,2.059 -39.045,0.68 -56.317,8.931 -15.763,7.533 -30.74,20.504 -48.245,23.004 -2.402,0.342 -3.919,1.22 -6.523,1.461 5.69,-3.577 14.951,-17.908 13.265,-25.128 -1.305,-5.591 -47.375,-1.918 -52.621,-1.15 -18.297,2.674 -34.551,-1.15 -52.889,-0.196 -19.138,0.993 -37.633,3.883 -56.286,5.746 -19.419,1.936 -38.355,-0.233 -57.437,-1.153 -19.168,-0.92 -38.694,1.204 -57.439,-1.403 -38.38,-5.328 -78.114,-1.998 -116.918,-5.485 -38.282,-3.438 -78.698,0.429 -116.018,5.998 -37.748,5.629 -77.261,6.619 -113.98,16.691 -16.254,4.462 -34.362,11.161 -47.1,21.826 -13.33,11.165 -29.228,18.353 -43.68,28.782 -14.091,10.162 -22.716,29.301 -25.572,46 -3.47,20.28 2.753,26.279 10.954,43.543 5.437,11.45 11.201,20.759 12.348,34.746 0,0 20.462,-7.899 48.677,-8.33 18.369,-0.282 40.652,-1.031 59.03,-3.814 19.416,-2.937 30.201,-5.078 49.286,-10.592 25.019,-7.23 49.925,-15.885 76.058,-21.926 42.038,-9.716 68.424,-17.556 111.141,-15.538 -0.219,22.457 28.835,40.391 31.444,62.466 4.08,34.523 29.466,83.222 56.292,64.076 6.837,-4.879 35.254,-18.498 59.28,-31.623 14.124,-7.713 40.862,12.948 56.707,8.08 19.317,-5.932 42.032,-4.593 62.035,-3.482 44.263,2.457 91.481,2.36 134.687,12.129 23.675,5.354 47.776,12.607 72.116,12.887 19.906,0.227 39.827,-0.045 59.737,0 28.837,0.061 52.324,-6.428 76.964,-19.818 13.041,-7.084 28.324,-17.509 38.823,-28.174 0.037,-0.035 0.068,-0.071 0.104,-0.11 4.859,-5.084 27.589,-20.066 21.08,-13.384 -4.22,4.335 12.813,6.185 14.887,10.3 5.193,10.334 10.311,20.766 16.953,30.275 8.055,11.531 21.969,17.861 33.116,25.759 17.37,12.3 34.056,24.75 51.911,36.444 27.941,18.296 57.21,39.334 88.541,51.525 5.36,2.085 11.341,1.697 16.835,3.173 6.47,1.74 10.056,7.492 14.472,9.144 C -20.682,18.661 -7.034,11.706 0,0"
             style="fill:#f2f2f2;fill-opacity:1;fill-rule:nonzero;stroke:none"
             id="path90" /></g><g
           id="g92"
           transform="translate(617.7261,850.9341)"><path
             d="m 0,0 c -2.592,-0.783 -11.06,0.749 -13.568,-1.108 -8.603,7.853 -22.685,0.224 -8.603,5.513 14.671,5.511 36.688,4.938 52.9,5.743 19.94,0.994 38.859,3.207 58.873,2.298 21.337,-0.97 35.22,1.019 55.107,6.577 16.456,4.602 28.226,2.219 45.262,-1.38 19.966,-4.218 32.598,-16.173 62.465,-12.149 19.393,2.612 36.938,8.178 56.291,10.336 18.597,2.07 35.745,8.65 55.058,10.342 17.325,1.521 39.521,-0.429 57.259,-4.826 11.866,-2.937 23.905,-6.147 20.362,-15.852 -2.761,-7.57 -8.729,-20.491 -12.352,-27.57 -6.859,-13.408 -16.365,-37.047 -38.763,-35.93 -18.485,0.921 -40.375,9.088 -57.44,14.076 -45.636,13.33 -96.627,24.259 -143.567,24.149 -18.361,-0.044 -36.848,0.607 -55.17,-0.255 -18.949,-0.889 -36.763,-5.227 -55.424,-6.894 -31.385,-2.799 -15.121,21.759 -46.621,23.479 -13.717,0.746 -2.533,-1.628 -16.27,1.307"
             style="fill:#f2f2f2;fill-opacity:1;fill-rule:nonzero;stroke:none"
             id="path94" /></g><g
           id="g96"
           transform="translate(588.7148,764.5166)"><path
             d="m 0,0 c -6.504,11.224 -29.11,16.687 -40.462,21.54 -17.244,7.371 -26.074,7.988 -42.588,16.947 -14.941,8.103 -34.609,11.299 -50.779,14.646 -14.618,3.03 -50.304,13.111 -61.171,23.263 8.516,5.908 17.332,1.486 27.575,3.016 13.434,2 45.1,-2.559 58.29,-4.568 15.546,-2.368 42.939,13.035 67.924,-12.233 4.61,-1.723 5.463,2.595 10.516,6.027 5.912,4.017 20.109,10.47 26.102,13.787 11.517,6.375 20.033,0.533 20.033,10.816 -30.776,1.829 -40.221,2.901 -53.635,2.904 -39.014,0 -71.785,4.181 -109.996,0.351 -18.398,-1.844 -36.29,-2.612 -53.96,0.025 -7.559,1.128 -25.418,-4.975 -27.881,1.987 -2.211,6.248 0.025,15.51 -7.037,16.865 -19.101,3.664 -48.051,-10.079 -61.606,-14.315 -18.596,-5.813 -30.964,-10.875 -42.218,-27.572 -10.252,-15.207 -7.379,-26.169 -12.836,-45.125 -3.561,-12.356 -4.369,-21.742 -5.603,-34.558 -0.401,-4.169 -0.396,-41.62 5.277,-41.671 10.864,-0.099 9.394,34.704 24.649,42.409 15.659,7.909 34.968,-1.237 49.982,9.848 6.576,4.857 1.085,6.369 9.062,4.758 3.616,-0.726 10.552,-8.159 14.02,-10.347 9.461,-5.959 20.454,-15.098 29.637,-21.526 14.324,-10.025 24.107,-16.666 36.871,-27.533 12.351,-10.512 26.492,-20.229 37.471,-31.976 10.313,-11.041 19.963,-14.046 32.423,-23.28 9.121,-6.761 19.705,-12.792 31.48,-13.93 7.413,-0.719 16.425,-1.645 20.477,-8.813 -7.983,45.301 11.567,124.769 67.977,129.401"
             style="fill:#fde1c5;fill-opacity:1;fill-rule:nonzero;stroke:none"
             id="path98" /></g><g
           id="g100"
           transform="translate(840.3057,830.0034)"><path
             d="M 0,0 C -0.608,0.721 -1.254,1.551 -2.211,1.807 40.74,-22.46 4.633,-70.59 -0.05,-102.988 c 21.529,25.254 68.017,29.951 97.693,32.914 17.795,1.777 37.583,6.479 56.289,3.449 14.251,-2.31 29.435,-13.867 43.369,-19.818 16.624,-7.098 34.493,-7.496 51.718,-14.903 6.835,-2.939 13.147,-6.79 19.763,-10.34 9.518,-5.111 15.586,-13.939 22.971,-19.309 7.519,-5.465 13.305,-2.329 21.57,4.95 6.333,5.575 13.883,13.731 19.557,20.383 15.03,17.637 28.262,39.662 40.147,59.774 11.708,19.814 27.962,45.284 29.039,68.578 1.333,28.762 -10.698,57.366 -22.653,82.702 -9.557,20.255 -12.729,41.076 -23.607,60.916 -10.081,18.38 -21.569,13.619 -36.767,1.722 C 307.465,158.971 298.318,144.1 289.75,131.816 279.733,117.451 275.451,103.406 255.003,89.31 239.198,78.415 239.794,76.844 228.464,61.793 218.1,48.018 212.286,13.97 199.368,0.788 c -8.773,-8.947 -14.511,-28.066 -25.033,-33.854 -10.586,-5.825 -42.013,1.229 -52.554,6.324 C 88.816,-10.802 58.736,-2.298 22.093,0.25 13.724,0.833 4.778,4.169 -3.434,-0.006"
             style="fill:#fde1c5;fill-opacity:1;fill-rule:nonzero;stroke:none"
             id="path102" /></g><g
           id="g104"
           transform="translate(263.6299,851.832)"><path
             d="m 0,0 c -12.87,-6.992 -34.862,-5.536 -48.276,-1.176 -7.233,2.351 -15.417,8.855 -12.606,-3.414 1.259,-5.486 9.298,-11.664 13.953,-14.419 -12.009,7.09 -18.936,-5.589 -28.635,-12.261 -6.63,-4.563 -23.19,-11.279 -23.053,-20.255 21.666,-1.075 43.908,7.298 67.164,5.289 14.461,-1.249 15.185,4.63 22.544,17.261 C -3.883,-20.356 6.083,-9.36 -1.153,0"
             style="fill:#fde1c5;fill-opacity:1;fill-rule:nonzero;stroke:none"
             id="path106" /></g><g
           id="g108"
           transform="translate(1152.7539,994.2798)"><path
             d="m 0,0 c -0.536,-1.103 -1.032,-1.796 -1.201,-3.044 13.336,31.679 45.896,50.829 79.318,52.439 36.605,1.768 73.172,0.802 107.087,-11.228 15.903,-5.643 33.103,-10.705 48.248,-19.5 15.661,-9.1 20.895,-22.632 27.28,-38.226 13.316,-32.53 -1.209,-64.566 -18.057,-94.478 -14.984,-26.598 -44.129,-41.379 -69.215,-56.258 -13.763,-8.159 -25.926,-19.116 -40.21,-26.421 -16.021,-8.197 -34.345,-11.028 -49.364,-20.076 -14.195,-8.554 -26.857,-16.223 -37.937,-29.034 -12.917,-14.934 -25.324,-20.815 -37.448,-32.31 14.543,13.136 26.08,32.911 32.595,49.827 5.931,15.406 10.313,23.615 11.806,39.858 3.32,36.234 4.136,74.552 -7.208,108.041 C 34.763,-48.152 7.752,-13.782 27.426,11.282 16.149,8.198 6.616,2.006 -3.451,-4.593"
             style="fill:#c2996c;fill-opacity:1;fill-rule:nonzero;stroke:none"
             id="path110" /></g><g
           id="g112"
           transform="translate(641.8555,840.9175)"><path
             d="m 0,0 c 20.468,15.101 40.142,27.384 63.73,34.488 26.34,7.932 52.908,3.9 78.229,-5.409 23.897,-8.785 45.895,-28.832 61.154,-49.106 6.97,-9.262 10.82,-23.238 12.082,-34.441 1.594,-14.175 4.052,-18.38 -2.393,-30.822 -13.115,-25.313 -31.268,-46.277 -64.176,-45.032 -15.019,0.571 -24.017,-2.44 -37.487,1.092 -12.023,3.153 -23.235,1.97 -35.703,2.587 -13.864,0.685 -33.633,8.011 -46.335,11.871 -10.39,3.156 -24.716,8.098 -33.627,14.621 -20.218,14.795 -20.599,51.078 -12.735,72.63 3.171,8.686 12.834,26.43 22.427,29.249"
             style="fill:#c2996c;fill-opacity:1;fill-rule:nonzero;stroke:none"
             id="path114" /></g><g
           id="g116"
           transform="translate(1053.9639,832.8652)"><path
             d="m 0,0 c -1.484,1.145 -3.471,1.661 -5.656,1.638 0.258,-1.302 -0.469,-3.125 -0.189,-4.408 -8.509,-3.686 -2.954,-19.312 1.092,-24.381 5.746,-7.195 22.457,-19.96 32.008,-19.166 -4.91,6.332 -14.052,23.829 -16.484,29.519 C 8.162,-10.71 3.434,-2.323 -1.15,2.3"
             style="fill:#d18180;fill-opacity:1;fill-rule:nonzero;stroke:none"
             id="path118" /></g><g
           id="g120"
           transform="translate(1175.6768,1006.0078)"><path
             d="m 0,0 c -28.983,-11.406 -38.548,-37.367 -55.588,-61.037 -11.161,-15.501 -27.751,-25.201 -41.325,-38.264 -11.338,-10.912 -20.942,-27.833 -24.301,-43.198 -0.157,-0.715 0.912,-1.259 1.24,-0.524 7.43,16.632 14.671,32.246 28.018,45.127 11.678,11.266 25.289,19.602 35.751,32.222 19.447,23.459 26.849,51.196 56.385,65.228 C 0.432,-0.326 0.253,0.098 0,0"
             style="fill:#000000;fill-opacity:1;fill-rule:nonzero;stroke:none"
             id="path122" /></g><g
           id="g124"
           transform="translate(1120.4883,939.1465)"><path
             d="m 0,0 c 1.209,-21.601 0.179,-37.047 -16.941,-52.372 -14.391,-12.878 -32.994,-19.096 -48.795,-29.712 -0.783,-0.528 -0.113,-1.636 0.729,-1.249 30.79,14.057 83.351,40.697 65.211,83.389 C 0.162,0.157 -0.006,0.104 0,0 Z"
             style="fill:#000000;fill-opacity:1;fill-rule:nonzero;stroke:none"
             id="path126" /></g><g
           id="g128"
           transform="translate(1053.6826,856.5176)"><path
             d="m 0,0 c -1.17,-5.903 1.625,-10.336 5.89,-14.158 5.319,-4.764 11.349,-8.184 15.894,-13.835 0.373,-0.466 0.957,0.126 0.758,0.583 C 17.559,-15.981 -0.129,-14.82 0.606,-0.084 0.617,0.261 0.067,0.339 0,0"
             style="fill:#000000;fill-opacity:1;fill-rule:nonzero;stroke:none"
             id="path130" /></g><g
           id="g132"
           transform="translate(1103.9336,919.6465)"><path
             d="m 0,0 c -3.047,-4.043 -2.744,-9.169 -0.409,-13.456 1.925,-3.53 8.134,-9.304 12.463,-7.747 0.752,0.27 1.111,1.221 0.485,1.832 -1.102,1.07 -2.028,1.229 -3.502,1.698 -2.544,0.814 -4.486,2.183 -6.281,4.136 -3.508,3.804 -3.21,8.532 -1.558,13.03 C 1.479,0.253 0.41,0.545 0,0 Z"
             style="fill:#000000;fill-opacity:1;fill-rule:nonzero;stroke:none"
             id="path134" /></g><g
           id="g136"
           transform="translate(1137.9111,854.834)"><path
             d="m 0,0 c -5.174,-7.385 -4.708,-16.613 0.517,-23.756 5.075,-6.939 15.145,-14.223 23.815,-15.084 0.715,-0.07 1.058,0.929 0.572,1.383 -4.756,4.484 -12.031,6.973 -17.665,10.353 C -3.583,-20.605 -2.241,-10.62 0.44,-0.188 0.514,0.09 0.154,0.219 0,0"
             style="fill:#000000;fill-opacity:1;fill-rule:nonzero;stroke:none"
             id="path138" /></g><g
           id="g140"
           transform="translate(1136.3125,851.2988)"><path
             d="m 0,0 c -2.537,-4.879 -2.211,-13.094 -0.637,-18.254 2.059,-6.748 9.247,-12.98 16.22,-13.763 1.672,-0.188 2.281,2.063 1.288,3.106 C 12.106,-23.908 4.834,-22.233 1.983,-15.25 -0.034,-10.314 1.857,-4.812 0.16,-0.02 0.138,0.047 0.039,0.073 0,0"
             style="fill:#000000;fill-opacity:1;fill-rule:nonzero;stroke:none"
             id="path142" /></g><g
           id="g144"
           transform="translate(1141.8672,885.5571)"><path
             d="m 0,0 c 1.204,-6.204 12.512,-13.075 16.933,-17.34 8.28,-7.982 14.879,-17.058 20.844,-26.848 0.486,-0.794 1.605,-0.255 1.445,0.609 -2.065,10.875 -10.149,19.567 -17.516,27.395 C 17.343,-11.551 7.554,0.659 0.553,0.721 0.16,0.727 -0.067,0.356 0,0"
             style="fill:#000000;fill-opacity:1;fill-rule:nonzero;stroke:none"
             id="path146" /></g><g
           id="g148"
           transform="translate(1056.1523,865.103)"><path
             d="m 0,0 c -6.625,-12.093 -11.852,-24.809 -18.928,-36.705 -6.554,-11.012 -15.247,-20.266 -19.907,-32.361 -7.073,-18.364 6.79,-36.007 22.096,-44.648 0.894,-0.508 1.905,0.724 1.116,1.448 -8.493,7.797 -17.463,13.7 -21.764,24.982 -4.088,10.712 1.656,22.165 7.096,31.136 11.119,18.318 24.854,34.872 30.49,56.064 C 0.232,0.037 0.064,0.112 0,0"
             style="fill:#000000;fill-opacity:1;fill-rule:nonzero;stroke:none"
             id="path150" /></g><g
           id="g152"
           transform="translate(1050.54,831.1255)"><path
             d="m 0,0 c -6.901,3.165 -8.992,-9.396 -8.167,-13.833 1.784,-9.57 10.342,-19.741 19.758,-22.591 0.522,-0.158 1.002,0.584 0.553,0.954 -4.207,3.476 -8.62,6.433 -12.292,10.538 -2.562,2.865 -4.386,6.254 -5.522,9.899 -1.201,3.855 -0.488,13.591 5.348,13.849 C 0.262,-1.159 0.615,-0.278 0,0"
             style="fill:#000000;fill-opacity:1;fill-rule:nonzero;stroke:none"
             id="path154" /></g><g
           id="g156"
           transform="translate(1047.0898,828.7686)"><path
             d="M 0,0 C 0.345,1.711 0.396,7.573 4.004,5.564 6.341,4.262 8.111,1.24 9.551,-0.858 c 2.878,-4.201 5.229,-8.785 7.395,-13.387 5.138,-10.903 8.625,-25.151 19.332,-32.106 0.648,-0.42 1.572,0.275 1.322,1.013 -1.563,4.644 -4.798,7.915 -7.953,11.644 -4.317,5.104 -7.1,10.252 -9.48,16.492 -2.102,5.516 -5.384,10.788 -8.565,15.726 C 8.097,3.97 -1.378,13.269 -0.643,0.084 -0.629,-0.264 -0.076,-0.379 0,0"
             style="fill:#000000;fill-opacity:1;fill-rule:nonzero;stroke:none"
             id="path158" /></g><g
           id="g160"
           transform="translate(1152.2207,988.7803)"><path
             d="m 0,0 c 24.292,67.857 120.523,61.903 176.185,46.213 34.794,-9.808 71.03,-29.586 84.949,-64.84 12.996,-32.915 -2.368,-65.273 -20.095,-92.618 -0.547,-0.844 0.648,-1.672 1.344,-1.035 24.244,22.221 33.922,60.867 24.497,91.947 C 255.567,16.983 217.721,37.62 182.854,48.102 125.428,65.365 22.048,71.457 -2.368,0.654 -2.887,-0.853 -0.53,-1.476 0,0"
             style="fill:#000000;fill-opacity:1;fill-rule:nonzero;stroke:none"
             id="path162" /></g><g
           id="g164"
           transform="translate(1179.8291,1010.2725)"><path
             d="m 0,0 c -12.74,-16.049 -9.87,-34.729 -3.098,-52.855 4.033,-10.793 9.855,-20.925 15.278,-31.051 6.989,-13.044 10.389,-27.586 12.792,-42.069 4.882,-29.478 6.144,-61.685 -1.738,-90.663 -8.029,-29.508 -25.077,-54.857 -43.095,-79.049 -0.418,-0.561 0.499,-1.253 0.962,-0.743 35.386,38.989 51.679,86.647 49.47,138.755 C 29.525,-133.057 26.772,-109 16.56,-86.296 4.226,-58.887 -17.811,-30.911 1.069,-0.828 1.474,-0.18 0.482,0.612 0,0"
             style="fill:#000000;fill-opacity:1;fill-rule:nonzero;stroke:none"
             id="path166" /></g><g
           id="g168"
           transform="translate(1394.4688,881.6567)"><path
             d="m 0,0 c -10.283,-20.125 -23.636,-32.948 -43.284,-43.898 -17.562,-9.79 -35.939,-17.298 -52.159,-29.394 -7.826,-5.835 -15.426,-11.613 -24.098,-16.166 -12.034,-6.319 -26.173,-9.444 -38.742,-14.703 -21.484,-8.986 -37.943,-22.675 -53.037,-40.177 -0.772,-0.896 0.37,-1.976 1.271,-1.272 11.245,8.772 19.966,19.862 32.022,27.733 11.7,7.636 24.774,13.111 37.872,17.816 10.247,3.681 20.134,6.604 29.603,12.096 9.484,5.496 17.76,12.999 26.831,19.126 31.24,21.097 71.02,28.664 84.56,68.485 C 1.008,0.138 0.235,0.463 0,0"
             style="fill:#000000;fill-opacity:1;fill-rule:nonzero;stroke:none"
             id="path170" /></g><g
           id="g172"
           transform="translate(1394.4131,874.6704)"><path
             d="m 0,0 c 17.496,9.464 31.848,-5.959 41.129,-18.911 7.957,-11.102 7.076,-26.828 5.112,-39.569 -3.394,-22.014 -12.539,-44.258 -22.6,-63.943 -23.069,-45.124 -64.74,-66.609 -112.089,-78.291 -22.733,-5.609 -45.754,-10.225 -68.576,-15.449 -22.744,-5.208 -47.28,-9.287 -70.495,-4.82 -19.931,3.832 -39.653,15.42 -27.717,37.928 5.305,10.003 16.727,15.193 25.131,22.084 9.629,7.895 17.606,17.587 26.991,25.791 0.884,0.773 -0.384,1.977 -1.271,1.27 -13.117,-10.467 -24.688,-22.187 -38.697,-31.587 -8.176,-5.482 -16.346,-12.639 -19.461,-22.344 -5.159,-16.086 4.282,-28.206 19.332,-33.838 21.714,-8.125 45.293,-6.083 67.579,-1.335 32.165,6.851 64.698,13.338 96.532,21.59 25.858,6.706 50.529,16.573 71.073,33.986 20.638,17.491 35.531,41.64 45.402,66.561 9.599,24.236 18.983,54.209 8.484,79.556 C 38.735,-4.124 17.067,12.009 -0.842,1.431 -1.768,0.893 -0.943,-0.51 0,0 Z"
             style="fill:#000000;fill-opacity:1;fill-rule:nonzero;stroke:none"
             id="path174" /></g><g
           id="g176"
           transform="translate(1016.3662,796.1943)"><path
             d="m 0,0 c -25.414,-7.365 -55.163,12.314 -78.597,20.089 -30.058,9.971 -69.504,24.558 -101.411,16.747 -0.867,-0.211 -0.639,-1.47 0.205,-1.506 20.341,-0.831 39.32,-1.392 59.319,-6.162 16.797,-4.006 33.969,-8.507 50.153,-14.562 C -49.375,6.77 -22.53,-9.374 0.525,-1.9 1.729,-1.513 1.229,0.355 0,0"
             style="fill:#000000;fill-opacity:1;fill-rule:nonzero;stroke:none"
             id="path178" /></g><g
           id="g180"
           transform="translate(623.001,803.0117)"><path
             d="m 0,0 c 2.982,26.565 26.75,44.611 47.919,57.552 24.525,14.993 50.588,21.823 79.366,18.944 29.929,-2.994 56.814,-17.482 78.258,-38.071 10.974,-10.533 19.509,-23.119 25.098,-37.243 6.478,-16.37 4.472,-31.824 0.275,-48.364 -0.208,-0.818 1.004,-1.388 1.402,-0.589 13.398,27.023 1.109,56.98 -16.119,78.92 -20.52,26.139 -51.606,42.426 -84.065,47.46 C 101.181,83.41 73.092,75.337 46.542,59.909 24.519,47.109 0.098,27.21 -1.928,0 -2.023,-1.257 -0.135,-1.212 0,0 Z"
             style="fill:#000000;fill-opacity:1;fill-rule:nonzero;stroke:none"
             id="path182" /></g><g
           id="g184"
           transform="translate(623.6743,810.7837)"><path
             d="m 0,0 c -5.449,-18.529 -9.506,-44.076 3.754,-60.483 8.075,-9.992 18.622,-14.694 30.364,-19.212 18.06,-6.946 36.564,-12.505 55.548,-16.262 29.171,-5.777 63.247,-8.543 92.576,-2.838 24.886,4.842 45.486,32.015 53.876,54.599 0.289,0.778 -0.904,1.501 -1.429,0.833 -5.981,-7.626 -8.378,-17.115 -13.694,-25.137 -9.818,-14.811 -21.863,-24.241 -39.077,-29.115 -12.434,-3.518 -26.527,-1.745 -39.249,-1.029 -16.015,0.897 -31.814,1.31 -47.703,3.835 -26.276,4.172 -57.265,12.334 -80.014,26.36 C -8.501,-53.991 -3.227,-22.642 0.174,-0.051 0.188,0.062 0.034,0.109 0,0"
             style="fill:#000000;fill-opacity:1;fill-rule:nonzero;stroke:none"
             id="path186" /></g><g
           id="g188"
           transform="translate(772.6875,875.7651)"><path
             d="m 0,0 c 26.834,-4.585 51.942,-12.747 76.633,-24.155 20.135,-9.304 42.199,-18.692 64.791,-17.261 0.676,0.045 0.676,1.01 0,1.052 -25.998,1.605 -48.759,10.982 -72.197,21.677 C 47.389,-8.723 23.911,-2.753 0.258,0.928 -0.348,1.021 -0.615,0.104 0,0"
             style="fill:#000000;fill-opacity:1;fill-rule:nonzero;stroke:none"
             id="path190" /></g><g
           id="g192"
           transform="translate(828.8027,864.0371)"><path
             d="M 0,0 C 0.179,0 0.179,0.28 0,0.28 -0.18,0.28 -0.183,0 0,0"
             style="fill:#000000;fill-opacity:1;fill-rule:nonzero;stroke:none"
             id="path194" /></g><g
           id="g196"
           transform="translate(828.2969,863.8687)"><path
             d="m 0,0 c 12.957,-19.267 54.794,-6.479 72.534,-2.584 22.974,5.042 45.908,10.417 69.288,13.285 27.567,3.381 54.379,-0.805 80.705,-8.79 1.1,-0.334 1.776,1.287 0.778,1.843 -16.122,8.984 -37.733,10.578 -55.894,11.299 C 143.307,16.009 119.13,10.435 95.702,5.555 80.486,2.388 65.521,-1.81 50.269,-4.815 36.371,-7.553 11.285,-12.135 0.93,0.718 0.506,1.24 -0.373,0.553 0.001,0 Z"
             style="fill:#000000;fill-opacity:1;fill-rule:nonzero;stroke:none"
             id="path198" /></g><g
           id="g200"
           transform="translate(833.0947,726.3594)"><path
             d="m 0,0 c -0.926,-0.641 -0.685,-0.41 -1.203,-0.898 -0.102,-0.096 0.003,-0.258 0.129,-0.225 6.176,1.594 11.568,6.053 16.916,9.444 12.219,7.747 25.675,12.259 39.575,16.153 35.826,10.036 76.26,14.663 113.158,9.691 1.437,-0.19 2.121,1.911 0.62,2.242 C 134.746,44.033 93.325,36.514 59.55,28.074 45.813,24.643 30.566,20.296 18.611,12.46 14.47,9.744 10.306,7.059 6.131,4.394 4.613,3.426 -1.327,-1.288 0.051,-0.067 0.09,-0.034 0.04,0.027 0,0"
             style="fill:#000000;fill-opacity:1;fill-rule:nonzero;stroke:none"
             id="path202" /></g><g
           id="g204"
           transform="translate(1000.3457,760.8691)"><path
             d="m 0,0 c 15.653,-15.574 38.531,-20.173 59.156,-25.562 14.253,-3.724 27.451,-9.15 40.159,-16.636 14.379,-8.471 23.804,-20.308 36.029,-30.955 0.881,-0.767 1.997,0.178 1.552,1.197 -9.664,22.012 -39.023,35.524 -59.915,43.972 C 52.125,-17.931 22.003,-17.589 1.555,1.552 0.52,2.518 -1.007,0.999 0,0"
             style="fill:#000000;fill-opacity:1;fill-rule:nonzero;stroke:none"
             id="path206" /></g><g
           id="g208"
           transform="translate(639.7793,740.1348)"><path
             d="m 0,0 c -39.915,26.79 -85.16,46.924 -130.411,62.804 -24.189,8.488 -49.16,13.347 -73.696,20.477 -25.931,7.533 -47.919,22.56 -71.591,34.754 -0.966,0.5 -2.161,-0.839 -1.221,-1.582 37.937,-30.103 86.627,-36.39 131.298,-50.689 C -94.5,49.404 -48.531,22.488 -1.016,-1.742 0.146,-2.334 1.08,-0.724 0,0"
             style="fill:#000000;fill-opacity:1;fill-rule:nonzero;stroke:none"
             id="path210" /></g><g
           id="g212"
           transform="translate(364.0586,856.9102)"><path
             d="m 0,0 c -4.06,5.146 -1.125,12.048 -4.579,17.138 -2.923,4.309 -6.029,6.419 -10.942,8.066 -12.685,4.259 -28.804,-6.144 -40.406,-9.871 -24.834,-7.974 -53.539,-17.541 -64.011,-44.083 -3.344,-8.477 -4.475,-17.329 -7.075,-26.01 -2.761,-9.211 -6.406,-17.752 -7.893,-27.325 -2.593,-16.672 -1.005,-36.349 0.971,-53.154 0.325,-2.776 2.413,-8.376 6.243,-5.326 13.307,10.603 12.022,29.999 23.615,42.078 0.705,0.735 -0.224,2.046 -1.113,1.448 -6.765,-4.549 -9.54,-10.738 -11.958,-18.364 -2.624,-8.266 -4.389,-15.368 -10.244,-22.261 -4.689,-5.522 -5.471,12.112 -5.539,13.552 -0.78,16.61 -2.463,33.716 1.566,50.051 3.136,12.724 7.889,25.322 11.326,38.041 7.273,26.898 32.999,39.833 57.372,48.018 11.05,3.709 22.115,8.201 33.437,10.961 13.167,3.213 21.609,-3.406 24.348,-16.405 0.713,-3.381 1.361,-5.182 3.923,-7.511 C -0.297,-1.563 0.53,-0.676 0,0"
             style="fill:#000000;fill-opacity:1;fill-rule:nonzero;stroke:none"
             id="path214" /></g><g
           id="g216"
           transform="translate(255.998,756.9131)"><path
             d="m 0,0 c 19.25,6.523 44.499,2.088 60.542,16.456 0.433,0.387 -0.123,1.08 -0.611,0.791 C 47.97,10.138 37.123,7.831 23.389,6.411 15.207,5.567 7.132,4.408 -0.354,0.842 -0.825,0.618 -0.491,-0.168 0,0"
             style="fill:#000000;fill-opacity:1;fill-rule:nonzero;stroke:none"
             id="path218" /></g><g
           id="g220"
           transform="translate(311.8716,774.4492)"><path
             d="M 0,0 C 0.18,0 0.18,0.28 0,0.28 -0.18,0.28 -0.18,0 0,0"
             style="fill:#000000;fill-opacity:1;fill-rule:nonzero;stroke:none"
             id="path222" /></g><g
           id="g224"
           transform="translate(304.5962,782.8105)"><path
             d="m 0,0 c 39.04,-30.252 80.104,-57.355 117.283,-90.003 28.156,-24.725 64.008,-54.229 103.664,-54.258 0.878,0 1.032,1.263 0.205,1.507 -20.308,6.005 -39.017,10.264 -57.658,21.116 -18.569,10.811 -34.761,25.412 -51.009,39.331 C 77.08,-51.971 37.594,-27.474 0.665,0.861 0.171,1.24 -0.491,0.379 0,0"
             style="fill:#000000;fill-opacity:1;fill-rule:nonzero;stroke:none"
             id="path226" /></g><g
           id="g228"
           transform="translate(532.9365,632.0859)"><path
             d="m 0,0 c -13.961,12.505 -15.131,25.785 -10.816,43.268 2.901,11.753 7.037,23.402 10.344,35.074 3.466,12.244 7.834,24.182 15.07,34.732 9.862,14.382 23.585,15.03 38.504,20.117 0.779,0.267 0.633,1.375 -0.191,1.423 C 21.175,136.356 5.811,108.479 -1.543,82.076 -6.088,65.764 -10.157,49.336 -14.75,33.035 -18.51,19.687 -13.838,4.629 -0.873,-1.137 -0.177,-1.448 0.662,-0.592 0,0"
             style="fill:#000000;fill-opacity:1;fill-rule:nonzero;stroke:none"
             id="path230" /></g><g
           id="g232"
           transform="translate(528.896,635.7617)"><path
             d="m 0,0 c 15.479,-16.72 46.306,-35.397 70.104,-29.946 0.725,0.169 0.789,1.408 0,1.523 C 43.846,-24.624 20.35,-18.345 0.216,0.219 0.07,0.354 -0.134,0.146 0,0"
             style="fill:#000000;fill-opacity:1;fill-rule:nonzero;stroke:none"
             id="path234" /></g><g
           id="g236"
           transform="translate(597.0479,604.3369)"><path
             d="m 0,0 c 36.188,2.876 69.84,-0.729 105.743,-5.154 19.887,-2.452 39.94,-2.475 59.732,-5.904 10.563,-1.832 20.644,-5.229 30.203,-10.075 8.572,-4.346 15.32,-11.321 23.566,-16.164 0.931,-0.547 1.711,0.653 1.088,1.411 -23.7,28.759 -66.415,30.477 -100.628,33.254 C 80.589,0.541 38.832,10.521 -0.141,1.035 -0.71,0.897 -0.598,-0.045 0,0"
             style="fill:#000000;fill-opacity:1;fill-rule:nonzero;stroke:none"
             id="path238" /></g><g
           id="g240"
           transform="translate(809.6113,572.5479)"><path
             d="m 0,0 c 19.18,-14.677 38.141,-29.084 59.26,-40.896 19.666,-10.999 44,-15.85 65.801,-20.504 43.239,-9.229 88.15,-10.096 130.806,2.395 19.842,5.811 36.809,16.128 54.041,27.216 15.225,9.795 30.372,19.668 43.641,32.064 12.062,11.271 20.631,25.414 24.163,41.556 3.505,16.001 -2.275,25.67 -14.514,35.504 -1.535,1.228 -3.729,-0.856 -2.203,-2.202 8.075,-7.121 14.492,-13.047 14.612,-24.672 0.099,-9.607 -4.059,-19.853 -8.599,-28.054 C 358.697,7.398 344.251,-3.998 330.572,-13.799 300.38,-35.437 269.536,-53.87 232.705,-61.28 192.578,-69.353 150.783,-64.209 111.419,-54.698 91.097,-49.788 70.861,-43.461 52.26,-33.834 33.795,-24.283 17.274,-11.29 0.488,0.836 -0.022,1.201 -0.48,0.37 0,0"
             style="fill:#000000;fill-opacity:1;fill-rule:nonzero;stroke:none"
             id="path242" /></g><g
           id="g244"
           transform="translate(1179.8574,647.125)"><path
             d="m 0,0 c 21.972,-14.7 35.282,-40.61 56.171,-57.134 20.86,-16.501 46.738,-24.463 72.846,-27.283 48.842,-5.277 104.219,5.682 143.792,35.636 36.88,27.917 51.97,73.552 49.818,118.504 -1.911,39.888 -20.056,84.525 -61.457,96.624 -2.399,0.701 -3.378,-2.963 -1.024,-3.721 43.402,-13.983 57.863,-61.316 58.699,-102.695 0.931,-46.247 -20.524,-88.463 -59.488,-113.566 -38.455,-24.772 -89.955,-31.834 -134.726,-27.14 -30.279,3.173 -56.94,16.357 -79.242,36.747 C 29.923,-29.896 18.95,-9.574 0.935,1.585 -0.087,2.219 -0.974,0.653 0,-0.001 Z"
             style="fill:#000000;fill-opacity:1;fill-rule:nonzero;stroke:none"
             id="path246" /></g><g
           id="g248"
           transform="translate(258.1528,851.5234)"><path
             d="m 0,0 c -17.693,-2.419 -36.197,-4.458 -52.061,5.232 -0.308,0.188 -0.724,-0.196 -0.51,-0.51 3.917,-5.707 12.073,-6.745 18.433,-7.584 11.226,-1.479 23.223,-0.612 34.444,0.578 C 1.986,-2.104 1.672,0.227 0,0 Z"
             style="fill:#000000;fill-opacity:1;fill-rule:nonzero;stroke:none"
             id="path250" /></g><g
           id="g252"
           transform="translate(206.3896,857.0786)"><path
             d="m 0,0 c -7.567,-3.886 -3.036,-12.758 0.934,-17.69 3.945,-4.896 13.905,-16.173 21.38,-12.929 0.693,0.3 0.371,1.234 -0.188,1.445 -6.229,2.303 -11.481,4.789 -16.441,9.41 C 1.538,-15.903 -7.171,-5.659 0.755,-1.288 1.599,-0.819 0.853,0.437 0,0"
             style="fill:#000000;fill-opacity:1;fill-rule:nonzero;stroke:none"
             id="path254" /></g><g
           id="g256"
           transform="translate(210.8901,837.2979)"><path
             d="m 0,0 c -7.121,-1.223 -12.183,-6.06 -17.443,-10.681 -6.182,-5.429 -12.307,-8.243 -19.587,-11.675 -6.44,-3.036 -16.364,-9.834 -8.3,-16.941 0.82,-0.724 2.247,0.219 1.583,1.223 -6.406,9.649 9.175,14.158 15.953,17.247 10.62,4.843 17,15.541 28.164,19.472 C 1.234,-1.049 0.887,0.152 0,0"
             style="fill:#000000;fill-opacity:1;fill-rule:nonzero;stroke:none"
             id="path258" /></g><g
           id="g260"
           transform="translate(701.1689,824.4199)"><path
             d="m 0,0 c -2.068,1.622 -4.284,3.179 -4.194,6.083 0.069,2.261 2.154,4.175 3.939,5.255 C 6.905,15.67 12.393,7.497 14.509,1.77 14.626,1.456 15.084,1.577 15.017,1.913 13.431,9.657 6.891,16.371 -1.38,12.962 -8.296,10.114 -7.811,1.4 -1.276,-1.656 -0.272,-2.122 1.004,-0.789 0,0 Z"
             style="fill:#000000;fill-opacity:1;fill-rule:nonzero;stroke:none"
             id="path262" /></g><g
           id="g264"
           transform="translate(705.6582,845.9678)"><path
             d="m 0,0 c 20.426,4.584 23.299,-22.973 16.913,-36.752 -0.18,-0.391 0.317,-0.674 0.567,-0.334 C 25.827,-25.692 19.573,11.56 -0.101,0.241 -0.236,0.166 -0.146,-0.031 0,0"
             style="fill:#000000;fill-opacity:1;fill-rule:nonzero;stroke:none"
             id="path266" /></g><g
           id="g268"
           transform="translate(740.9263,847.4829)"><path
             d="m 0,0 c 20.025,-0.968 31.632,-16.375 39.368,-33.431 0.146,-0.319 0.659,-0.09 0.561,0.239 C 35.468,-18.288 18.061,5.031 -0.087,0.646 -0.46,0.553 -0.362,0.017 0,0"
             style="fill:#000000;fill-opacity:1;fill-rule:nonzero;stroke:none"
             id="path270" /></g><g
           id="g272"
           transform="translate(684.2505,823.7461)"><path
             d="m 0,0 c -1.291,8.754 -2.865,15.286 3.484,22.606 5.239,6.041 13.611,9.065 21.01,11.305 12.463,3.768 25.583,3.933 38.326,6.108 0.497,0.084 0.368,0.867 -0.117,0.861 C 45.434,40.706 -21.184,31.327 -0.362,-0.151 -0.23,-0.348 0.031,-0.216 0,0"
             style="fill:#000000;fill-opacity:1;fill-rule:nonzero;stroke:none"
             id="path274" /></g><g
           id="g276"
           transform="translate(794.2637,834.6328)"><path
             d="m 0,0 c 25.257,-9.25 19.932,-48.604 26.438,-69.622 0.135,-0.438 0.752,-0.252 0.676,0.185 C 23.95,-51.006 25.069,-3.768 0.138,0.51 -0.194,0.564 -0.32,0.118 0,0"
             style="fill:#000000;fill-opacity:1;fill-rule:nonzero;stroke:none"
             id="path278" /></g><g
           id="g280"
           transform="translate(715.8149,775.6836)"><path
             d="m 0,0 c -10.176,-7.048 -10.572,-25.189 -4.486,-34.897 0.215,-0.343 0.836,-0.122 0.681,0.289 -4.205,11.09 -3.925,24.9 4.15,34.162 C 0.547,-0.216 0.281,0.196 0,0"
             style="fill:#000000;fill-opacity:1;fill-rule:nonzero;stroke:none"
             id="path282" /></g><g
           id="g284"
           transform="translate(652.3491,782.502)"><path
             d="m 0,0 c -10.861,11.888 -12.062,25.751 -12.831,41.186 -0.017,0.339 -0.51,0.339 -0.527,0 C -13.97,26.848 -13.642,8.481 -0.295,-0.376 -0.053,-0.533 0.18,-0.193 0,0"
             style="fill:#000000;fill-opacity:1;fill-rule:nonzero;stroke:none"
             id="path286" /></g><g
           id="g288"
           transform="translate(770.6113,842.3765)"><path
             d="m 0,0 c 3.659,-8.302 6.506,-15.754 7.845,-24.814 0.064,-0.443 0.797,-0.334 0.774,0.104 C 8.207,-15.996 6.888,-6.139 0.858,0.662 0.412,1.167 -0.233,0.527 0,0"
             style="fill:#000000;fill-opacity:1;fill-rule:nonzero;stroke:none"
             id="path290" /></g><g
           id="g292"
           transform="translate(795.8628,822.624)"><path
             d="m 0,0 c 10.047,-12.598 8.428,-31.831 3.308,-46.23 -0.132,-0.374 0.48,-0.634 0.643,-0.272 6.077,13.594 9.216,36.003 -3.547,46.906 C 0.121,0.646 -0.227,0.283 0,0"
             style="fill:#000000;fill-opacity:1;fill-rule:nonzero;stroke:none"
             id="path294" /></g><g
           id="g296"
           transform="translate(734.5571,797.8496)"><path
             d="m 0,0 c 1.063,-9.733 -0.067,-17.326 -4.514,-26.15 -3.381,-6.711 -7.357,-12.943 -9.153,-20.317 -0.067,-0.277 0.329,-0.381 0.421,-0.114 C -8.007,-31.756 6.476,-16.574 0.646,0.09 0.531,0.415 -0.042,0.39 0,0 Z"
             style="fill:#000000;fill-opacity:1;fill-rule:nonzero;stroke:none"
             id="path298" /></g><g
           id="g300"
           transform="translate(393.8838,840.3003)"><path
             d="m 0,0 c 29.583,9.388 58.41,-2.828 88.423,-1.675 14.697,0.567 32.308,5.69 46.303,-0.233 7.971,-3.37 13.44,-10.552 21.778,-13.453 0.553,-0.191 0.789,0.583 0.373,0.881 -7.572,5.409 -15.44,11.893 -24.073,15.484 C 121.309,5.786 105.277,1.274 93.423,0.339 61.724,-2.163 30.678,11.571 -0.337,1.226 -1.108,0.968 -0.783,-0.25 0,0"
             style="fill:#000000;fill-opacity:1;fill-rule:nonzero;stroke:none"
             id="path302" /></g><g
           id="g304"
           transform="translate(529.9902,809.6616)"><path
             d="m 0,0 c 15.541,10.872 28.596,24.528 45.787,33.038 22.679,11.225 45.731,5.701 69.526,3.731 0.573,-0.047 0.68,0.859 0.135,0.991 C 93.485,43.04 70.845,44.336 49.396,36.458 30.238,29.424 14.758,13.532 -0.32,0.412 -0.544,0.219 -0.247,-0.171 0,0"
             style="fill:#000000;fill-opacity:1;fill-rule:nonzero;stroke:none"
             id="path306" /></g><g
           id="g308"
           transform="translate(361.8418,858.7622)"><path
             d="m 0,0 c 41.418,2.955 82.966,0.092 124.435,1.518 22.135,0.76 44.334,0.401 66.462,-0.351 21.406,-0.724 43.647,-4.483 64.987,-2.225 0.55,0.059 0.575,0.898 0,0.878 C 212.131,-1.703 168.339,4.525 124.435,2.859 83,1.282 41.332,4.242 0,0.482 -0.306,0.455 -0.311,-0.022 0,0"
             style="fill:#000000;fill-opacity:1;fill-rule:nonzero;stroke:none"
             id="path310" /></g><g
           id="g312"
           transform="translate(614.2749,857.6958)"><path
             d="m 0,0 c 18.563,0.586 37.541,1.507 56,3.468 0.561,0.059 0.569,0.828 0,0.878 C 37.541,5.934 18.417,2.259 0,0.923 -0.586,0.878 -0.6,-0.02 0,0"
             style="fill:#000000;fill-opacity:1;fill-rule:nonzero;stroke:none"
             id="path314" /></g><g
           id="g316"
           transform="translate(136.0186,765.3027)"><path
             d="m 0,0 c -13.302,42.804 78.205,35.296 101.108,39.542 0.988,0.182 0.547,1.613 -0.41,1.478 C 77.296,37.74 -15.042,44.205 -1.521,-0.424 -1.226,-1.392 0.303,-0.977 0,0"
             style="fill:#000000;fill-opacity:1;fill-rule:nonzero;stroke:none"
             id="path318" /></g><g
           id="g320"
           transform="translate(133.3926,765.3584)"><path
             d="m 0,0 c -10.561,-5.418 -22.463,-10.902 -22.104,-24.376 0.424,-15.86 18.852,-27.011 31.181,-32.595 17.061,-7.726 35.989,-9.606 54.479,-10.108 12.96,-0.354 25.905,0.005 38.86,-0.671 13.094,-0.685 24.308,-4.843 36.878,-7.354 0.993,-0.197 1.394,1.207 0.418,1.524 -31.559,10.235 -62.902,5.917 -95.406,8.678 -16.995,1.442 -34.146,7.332 -48.38,16.643 -9.402,6.151 -18.355,17.825 -16.276,29.674 1.557,8.863 13.703,14.262 20.639,18.092 C 0.609,-0.316 0.325,0.166 0,0"
             style="fill:#000000;fill-opacity:1;fill-rule:nonzero;stroke:none"
             id="path322" /></g><g
           id="g324"
           transform="translate(271.1743,690.249)"><path
             d="m 0,0 c 35.571,-4.865 68.098,-20.962 103.094,-28.237 18.608,-3.869 37.477,-6.813 56.135,-10.55 18.768,-3.76 38.063,-6.714 57.231,-5.221 1.058,0.081 1.086,1.65 0,1.666 -39.241,0.565 -79.054,9.762 -117.423,17.662 C 65.503,-17.774 34.446,-2.511 0.21,1.555 -0.67,1.655 -0.878,0.121 0,0"
             style="fill:#000000;fill-opacity:1;fill-rule:nonzero;stroke:none"
             id="path326" /></g><g
           id="g328"
           transform="translate(143.0244,708.2061)"><path
             d="M 0,0 C 0.326,0.132 1.039,0.538 1.355,0.289 1.675,0.036 1.746,-0.545 1.81,-0.918 1.897,-1.397 1.939,-1.847 2.054,-2.32 2.11,-2.551 2.464,-2.554 2.52,-2.32 2.722,-1.442 2.525,-0.545 2.133,0.264 1.588,1.374 0.41,0.99 -0.05,0.064 -0.067,0.03 -0.039,-0.018 0,0 Z"
             style="fill:#000000;fill-opacity:1;fill-rule:nonzero;stroke:none"
             id="path330" /></g><g
           id="g332"
           transform="translate(146.1084,707.083)"><path
             d="m 0,0 c 1.958,-26.22 -24.96,-44.016 -23.15,-70.076 0.047,-0.679 0.996,-0.673 1.052,0 C -20.002,-44.934 3.092,-25.562 0.701,0 0.659,0.443 -0.034,0.455 0,0"
             style="fill:#000000;fill-opacity:1;fill-rule:nonzero;stroke:none"
             id="path334" /></g><g
           id="g336"
           transform="translate(123.9316,646.1982)"><path
             d="m 0,0 c -0.525,-50.191 35.091,-82.051 78.782,-99.388 24.817,-9.844 51.273,-15.258 77.428,-20.156 29.651,-5.553 59.426,-11.708 89.422,-14.955 44.819,-4.851 90.143,-2.575 135.06,-0.589 45.723,2.021 91.478,3.429 137.249,3.811 45.035,0.378 89.999,-1.482 135.018,-1.995 17.163,-0.194 34.337,-0.952 51.406,-2.748 11.431,-1.201 24.792,-3.085 35.117,3.176 0.761,0.575 1.476,1.21 2.141,1.9 1.532,1.389 -0.74,3.647 -2.264,2.264 -10.171,-9.248 -29.101,-4.756 -41.416,-3.504 -18.42,1.872 -37.055,1.987 -55.553,2.146 -41.503,0.359 -82.932,2.055 -124.449,1.746 -83.39,-0.626 -167.327,-9.565 -250.643,-5.087 -33.066,1.775 -65.36,8.448 -97.876,14.205 -24.267,4.296 -48.494,8.985 -72.13,16.055 -23.72,7.096 -46.895,17.392 -65.466,34.073 C 11.756,-51.022 3.572,-26.23 1.403,0.003 1.327,0.89 0.008,0.915 0,0"
             style="fill:#000000;fill-opacity:1;fill-rule:nonzero;stroke:none"
             id="path338" /></g><g
           id="g340"
           transform="translate(806.7773,575.9434)"><path
             d="m 0,0 c 20.785,-18.763 57.231,-30.987 59.432,-62.979 0.036,-0.538 0.866,-0.72 0.99,-0.134 C 66.704,-33.574 18.507,-13.566 0.345,0.448 0.087,0.647 -0.235,0.216 0,0"
             style="fill:#000000;fill-opacity:1;fill-rule:nonzero;stroke:none"
             id="path342" /></g><g
           id="g344"
           transform="translate(1343.4609,1032.7183)"><path
             d="m 0,0 c -53.56,3.322 -129.572,25.016 -167.119,-27.796 -0.443,-0.623 0.482,-1.215 0.996,-0.769 8.706,7.522 15.014,16.194 25.504,21.598 13.535,6.973 30.12,8.665 44.971,10.744 C -63.433,8.288 -32.132,0.236 0,-1.094 0.709,-1.125 0.701,-0.045 0,0"
             style="fill:#000000;fill-opacity:1;fill-rule:nonzero;stroke:none"
             id="path346" /></g><g
           id="g348"
           transform="translate(1257.8291,1039.8447)"><path
             d="m 0,0 c 13.583,-19.794 32.973,-33.607 41.34,-56.945 9.724,-27.118 9.049,-61.62 2.716,-89.422 -5.881,-25.796 -22,-47.462 -38.602,-67.383 -8.066,-9.683 -16.564,-19.003 -24.645,-28.681 -7.643,-9.146 -12.388,-20.212 -18.967,-30.093 -0.724,-1.089 1.018,-2.088 1.742,-1.019 8.255,12.199 14.789,24.856 24.284,36.267 8.781,10.547 17.887,20.821 26.593,31.433 15.372,18.75 27.31,39.196 32.827,62.955 6.074,26.166 4.388,56.401 -2.581,82.197 C 37.706,-34.777 16.287,-20.083 1.248,0.732 0.71,1.476 -0.536,0.777 0,0"
             style="fill:#000000;fill-opacity:1;fill-rule:nonzero;stroke:none"
             id="path350" /></g><g
           id="g352"
           transform="translate(1270.792,1037.4038)"><path
             d="m 0,0 c 16.394,-12.183 35.456,-20.005 50.91,-33.512 18.173,-15.88 26.736,-40.764 29.446,-64.03 5.429,-46.595 -19.413,-89.27 -43.904,-126.747 -0.503,-0.766 0.695,-1.433 1.212,-0.707 27.227,38.262 49.802,83.693 43.87,131.739 C 79.052,-73.16 70.727,-54.981 58.202,-39.23 43.281,-20.468 19.556,-12.637 0.603,1.021 -0.028,1.47 -0.604,0.449 -0.001,0 Z"
             style="fill:#000000;fill-opacity:1;fill-rule:nonzero;stroke:none"
             id="path354" /></g><g
           id="g356"
           transform="translate(1316.6934,1032.7744)"><path
             d="m 0,0 c 69.098,-31.057 85.48,-124.396 45.941,-184.181 -0.247,-0.37 0.329,-0.819 0.621,-0.476 C 94.374,-128.542 66.427,-27.499 0.665,1.136 -0.104,1.47 -0.774,0.348 0,0"
             style="fill:#000000;fill-opacity:1;fill-rule:nonzero;stroke:none"
             id="path358" /></g><g
           id="g360"
           transform="translate(1226.9658,1037.5444)"><path
             d="m 0,0 c -11.31,-6.703 -11.181,-20.715 -9.621,-32.283 2.924,-21.638 12.8,-42.356 20.502,-62.588 9.632,-25.308 8.911,-52.13 6.706,-78.83 -1.437,-17.368 -4.652,-34.399 -8.126,-51.446 -1.768,-8.662 -3.7,-17.124 -7.774,-25.042 -3.931,-7.643 -9.785,-14.174 -13.898,-21.741 -0.634,-1.17 1.083,-2.169 1.782,-1.041 6.069,9.811 12.938,19.079 17.382,29.774 5.814,13.992 8.232,30.184 10.709,45.035 4.489,26.86 7.085,56.48 2.253,83.454 -3.249,18.131 -12.914,35.793 -19.064,53.062 -6.038,16.961 -17.508,46.534 0.058,60.094 C 1.796,-0.867 1.032,0.611 0,0 Z"
             style="fill:#000000;fill-opacity:1;fill-rule:nonzero;stroke:none"
             id="path362" /></g><g
           id="g364"
           transform="translate(599.5728,850.1763)"><path
             d="M 0,0 C 0.974,1.251 2.018,2.427 3.05,3.625 4.161,4.916 5.569,5.923 6.61,7.27 6.765,7.472 6.509,7.696 6.313,7.657 4.703,7.332 3.454,6.125 2.287,5.037 0.979,3.816 -0.084,2.318 -1.136,0.875 -1.619,0.213 -0.502,-0.648 0,0"
             style="fill:#000000;fill-opacity:1;fill-rule:nonzero;stroke:none"
             id="path366" /></g><g
           id="g368"
           transform="translate(810.4531,712.7227)"><path
             d="m 0,0 c 21.155,4.332 41.738,13.445 62.913,18.484 23.681,5.634 47.726,8.749 71.613,13.218 0.658,0.121 0.508,1.212 -0.156,1.162 C 111.758,31.145 89.229,26.548 67.124,21.646 45.47,16.841 18.874,12.197 -0.087,0.202 -0.194,0.135 -0.121,-0.025 0,0"
             style="fill:#000000;fill-opacity:1;fill-rule:nonzero;stroke:none"
             id="path370" /></g><g
           id="g372"
           transform="translate(857.5615,727.6211)"><path
             d="m 0,0 c 24.362,5.59 45.943,5.915 70.542,0.539 22.945,-5.014 42.285,-15.718 63.278,-25.439 1.04,-0.483 2.273,0.816 1.302,1.685 C 117.659,-7.601 89.489,-0.583 67.214,4.023 46.74,8.258 18.72,11.642 -0.118,0.281 -0.272,0.188 -0.169,-0.039 0,0"
             style="fill:#000000;fill-opacity:1;fill-rule:nonzero;stroke:none"
             id="path374" /></g><g
           id="g376"
           transform="translate(601.3687,607.1992)"><path
             d="m 0,0 c -54.204,5.042 -107.78,14.738 -161.931,20.105 -52.187,5.174 -106.027,4.947 -155.329,-14.783 -0.92,-0.37 -0.581,-1.818 0.418,-1.523 52.476,15.574 105.903,16.739 159.998,11.341 C -104.573,9.926 -52.613,-0.999 0,-2.368 1.549,-2.41 1.493,-0.141 0,0"
             style="fill:#000000;fill-opacity:1;fill-rule:nonzero;stroke:none"
             id="path378" /></g><g
           id="g380"
           transform="translate(146.2905,708.29)"><path
             d="m 0,0 c -5.685,-28.341 -6.941,-52.561 11.944,-76.232 17.107,-21.445 44.822,-35.328 68.205,-48.616 0.819,-0.465 1.821,0.733 1.035,1.344 -18.538,14.38 -40.161,24.096 -57.866,39.665 -10.083,8.866 -17.625,19.82 -22.013,32.505 -6.072,17.547 0.69,33.814 -0.963,51.289 C 0.326,0.138 0.042,0.207 0,0"
             style="fill:#000000;fill-opacity:1;fill-rule:nonzero;stroke:none"
             id="path382" /></g><g
           id="g384"
           transform="translate(382.2681,727.7617)"><path
             d="m 0,0 c -16.063,6.562 -33.257,5.09 -50.195,4.023 -23.077,-1.456 -42.409,-0.23 -60.913,15.002 -0.724,0.598 -2.079,-0.221 -1.411,-1.09 26.217,-34.051 77.525,-6.53 111.888,-20.219 C 0.796,-2.851 1.389,-0.569 0,0"
             style="fill:#000000;fill-opacity:1;fill-rule:nonzero;stroke:none"
             id="path386" /></g><g
           id="g388"
           transform="translate(134.7812,781.8564)"><path
             d="m 0,0 c -6.773,-15.92 2.284,-33.304 19.59,-36.183 0.617,-0.101 0.836,0.702 0.258,0.932 -7.559,2.993 -14.051,6.133 -18.274,13.417 C -2.25,-15.229 -1.257,-7.219 0.401,-0.165 0.455,0.062 0.101,0.235 0,0"
             style="fill:#000000;fill-opacity:1;fill-rule:nonzero;stroke:none"
             id="path390" /></g><g
           id="g392"
           transform="translate(546.3198,802.0859)"><path
             d="m 0,0 c 12.867,4.242 24.634,11.56 36.626,17.76 16.543,8.552 32.092,11.93 50.58,13.064 0.707,0.045 0.701,1.041 0,1.097 C 55.772,34.32 26.411,14.651 -0.289,0.679 -0.662,0.482 -0.401,-0.132 0,0"
             style="fill:#000000;fill-opacity:1;fill-rule:nonzero;stroke:none"
             id="path394" /></g></g></g></g></svg>
